<svg xmlns="http://www.w3.org/2000/svg" xml:space="preserve" height="80" viewBox="0 0 700 260">
<rect width="700" height="260" fill="dodgerblue" rx="50" ry="50"/>
<g stroke="none" fill="white" transform="translate(40 5) scale(0.25)">
<svg xmlns="http://www.w3.org/2000/svg" width="1024" height="1024">
    <path d="M554 242c17.61-19.23 46.09-38.73 58.75-61.25 12.66-22.53 50.09-54.77 26-83.5C614.66 68.51 596.24 132.21 582 144c-9.06-30.38-31.78-15.94-30.01 5.99 1.78 21.94-15.85 33.96-27.74 48.26-11.9 14.3-33.49 18.86-49.25 25.75 8.71-14.41 21.25-25.84 31.25-39.75 10-13.92 21.04-28.04 26.43-44.57S542.83 97.09 519 92s-18.65 33.26-30.08 40.92-26.49 48.13-6.67 34.33c19.81-13.8 14.11-20.07 26.44-43.56 12.34-23.49 14.3.54 5.23 20.23-9.06 19.69-16.9 26.96-28.67 42.33S463.98 209.54 454 225c-13.53 1.59-26.99 3.56-40 7 28.62-18.64 48.75-50.26 55.22-82.78 6.48-32.52-19.36-20.35-17.29-.29 2.07 20.05-12.36 32.1-21.18 46.82-8.81 14.73-24.66 21.61-37.67 31.33-13.01 9.73-26.36 19.83-40.38 28.62-14.03 8.78-30.09 13.94-40.4 28.6s-11.66 37.75-2.3 53.7c-22.49 16.24-48.74 10.38-73 6s-46.84 29.25-56.07.07c-9.24-29.17-8.12-52.66 3.82-76.32 11.93-23.67 28.28-32.44 51.02-41.98s45.31-18.29 72.21-19.79c26.89-1.5 35.22-47.9 10.02-17.98-28.16 7.45-63.81 12.06-89.92 24.08-26.12 12.01-48.1 27.13-59.3 53.7-11.21 26.57-16.6 68.04 1.97 92.47 18.56 24.43 14.19 52.74 40.25 72.75-4.9 6.17-12.91 19.36-3 24-3.09 19.45-4.89 91.92 24 63 11.78 18.02 13.44 30.43 27.69 48.31 14.26 17.87-4.54 44.36-5.35 60.01-.81 15.66 36.01-9.15 37.74-24.24 1.72-15.1 17.53-46.07 5.92-64.08 19.87 8.24 33.83 11.94 56.93 6.93 23.09-5.02-3.16-21.48-12.93-29.93 15.04 3.77 30.08-1.73 43-8 17.02-21.51 31.83 1.73 60.93-8.07 29.1-9.81 11.28-22.85-13.93-9.93-25.2 12.93-41.2-7.78-62-14 18.37-14.52 39.19-19.97 63-25s45.9 22.21 69 15c-14.59-12.72-24.18-25.73-43.78-31.22s-43.73 1.26-63 8.44c-19.27 7.19-29.99 17.37-51.2 23.8-21.21 6.44 14 26.67 28.98 24.98-15.5 18.05-43.77-.99-59.33-2.67C298.12 486.66 326.33 529 335 530c-22.94-4.24-34.84-1.21-52.75-23.25s-23.18 2.87-7.02 21.02S286.37 570.08 281 590c-1.21-23.03-15.39-46.71-27.75-65.25C240.9 506.2 237.32 460.11 226 504c-7.21-16.9-5.09-40.51 2-57 21.07 3.59 33.05 19.6 56 19s34.45-10.07 56.77-18.23 24.17-14.73 52.01-21.99c27.84-7.27 8.83-27.47-14.09-15.09-22.91 12.39-32.03 10.82-50.99 23.01-18.97 12.18-36.04 18.18-56.68 12.28-20.63-5.91-31.79-21.8-52.02-11.98 20.23-5.96 16.02-37.14 34.08-18.08 18.07 19.06 30.16-21.18 8-25-22.17-3.81-35.61-2.05-39.08 22.08-25.39-1.11-26.85-40.82-5.23-49.23 21.63-8.41 45.62.96 60.98 16.48 15.37 15.52 35.89 33.11 58.23 25.73 22.33-7.39 44.71-19.12 67.8-14.76 23.08 4.36 40.33 15.12 57.47 28.53 17.15 13.4 29.12 27.63 46.67 38.33C525.47 468.79 552.35 479.7 572 479s54.84-.69 64.25-21.75c9.4-21.07-33.87-.69-51.25 1.75s-52.6-4.84-68.25-17.75c-15.66-12.9-31.99-22.84-48.5-36.5s-35.48-23.62-57.58-28.42-50.28 2.39-70.99 11.35S295.32 380.22 284 363c39.05-3.15 46.22-17.86 37-48s34.68-38.47 52.31-52.69C390.93 248.08 435.2 245.17 458 242c-4.08 5.07-9.39 9.56-11 16 26.9-1.63 52.88-24.81 78.75-40.25 25.88-15.44 40.88-51.96 47.25-77.75 5.48 5.28-7.5 43.23 10.75 27.75 18.26-15.47 28.3-39.45 37.25-60.75 16.14 30.51-17.76 60.25-42.25 88.75-24.49 28.51-46.02 40.65-71.5 74.5C481.76 304.1 556.98 322.33 585 296c10.58 22.53 45.72 10.82 66.99 9.99 21.28-.83 43.1-7.83 59.01-22.99-12.76 28.4-35.14 36.81-61.93 50.07-26.78 13.27-68.93-3.36-92.07 4.93-3.65-11.82-16.18-27.6-30-21 28.09 30.18 13.13 74.86-17.3 96.7-30.43 21.83 22.03 4.84 31.28 14.32 9.24 9.49 44.2 11.12 60.02 12.98s47.03-.56 63.78-7.22c16.74-6.66 40.58-13.16 59.22-13.78 18.63-.63 42.84-3.91 56.75-16.25 13.92-12.34 28.12-18.67 34.27-38.73 6.16-20.06-21.23 1.11-38 5-16.76 3.9-48.63-1.04-67.02-2.02 24.89-23.32 59.6-39.83 71.08-73.92 11.47-34.1-.46-29-15.33-12.33S735.58 299.88 716 304c14.63-4.33 30.58-69.09 11.92-59.08-18.66 10-28.03 41.29-55.25 39.75S617.05 303.01 588 294c14.12-19.54 35.08-20.2 54.98-25.02 19.89-4.83 26.42-27.38 42.77-39.23C702.11 217.91 722.2 209.57 742 205c19.79-4.58 48.73 1.35 62.25 15.75 13.53 14.39 33.82 33.4 25.75 55.25s-11.05 48.12 8.7 24.7c19.74-23.43 3.15-44.98-2.78-65.62-5.92-20.64-25.58-29.08-42.89-39.1-17.32-10.03-49.17-9.19-68.35-3.3s-38.56 14.76-53.43 28.57C656.37 235.06 645.34 252.33 625 256c12.22-15.94 20.81-38.82 17-59-26.9 18.29-54.35 44.65-88 45m68-11c-13.38 43.35-62.82 68.05-107 59 21.24-37.25 77.33-28.33 107-59m137 74c-17.51 27.89-53.81 35.93-78 50 6.56 1.7 14.27.97 20 2-42.9 27.57-95 30.57-143 19 3.64-11.7 2.13-25.19 0-37 29.03 15.1 77.47 26.29 107.69 4.69C695.92 322.1 726.59 321.7 759 305m21 82c-36.17 23.22-80.28 12.53-118.68 30.32S572.88 421.28 536 409c15.34-34.47 38.29-17.58 68.07-10.07 29.79 7.5 59.64-12.51 86.01-19.85S751.83 400.63 780 387Z"/>
    <path d="M392 287c-20.32-10.09-49.2 7.61-52.67 27.33S358.07 368.34 373 346c9.67 28.21 53.03 19.82 58-7 19.26 15.56 52.57-34.42 40.22-39.22-12.34-4.81-33.03 40.53-54.14 17.14-21.12-23.38-45.66-2.3-56.08 14.08-14.33-21.72 13.63-39.32 31-44m2 38c17.55 1.67 14.69 23.14-2 22-16.69-1.15-16.17-23.73 2-22Z"/>
    <path d="M490 348c-12.99-1.62-23.01 7.92-28.22 18.78-5.22 10.86 16.25 30.36 16.22 8.22-.03-22.13 19.52-5.95 17.32 3.32s-26.86 27.6-1.55 19.45S517.62 351.45 490 348Z"/>
    <path d="M674 441c-40.33 11.24-42.76 69.89-73.25 99.75S540.04 597.72 502 615c27.72-31.09 59.82-60.86 77.23-98.77S558.91 500.55 558 524c-13.08-6.32-21.74-21.77-37-24 3.55-6.21 7.89-11.71 13-17-8.15-3.56-15.71-9.78-25-10 .82 25.91-27.5 45.1-49.77 59.23s-51.06 24.71-74 39-42.75 30.47-60.48 52.52c-17.72 22.06-29.92 48.2-36.77 76.23-6.86 28.02-3.41 71.04 8.25 96.79s24.8 48.46 46.07 66.93c21.28 18.47 48.6 33.02 75.7 37.3 27.1 4.29 72.2 3.76 92.75-16.25 20.55-20 32.25-40.86 45.27-66.73 13.03-25.86 3.18-64.3-19.79-83.25s-58.57-22.78-83.98-8.52-23.27 74.33 13 52c36.27-22.34 41.09 30.39 4.97 35.97s-59.64-1.36-75.9-31.54c-16.26-30.19-1.87-61.91 14.43-85.93 16.3-24.01 38.04-38.35 62.56-50.44 24.51-12.1 52.5-22.87 75.44-37.56C569.7 594.07 588.44 576.36 609 559c-1.39 9.25-12.56 14.2-12 24 33.57-1.74 27.76-36.49 38.7-57.3 10.93-20.82 24.46-44.39 30.3-66.7 1.84 18.26 22.11 35.43 14 53 8.89-14.12-25.65-35.74-21.97-17.02 3.67 18.71 13.1 21.57 14.04 42.95.95 21.37 22.13 10.43 21.6-7.26s4.6-35.06-.89-51.45c-5.49-16.38-14.2-22.27-18.78-38.22m-160 67c24.5 10.25 43.09 26.66 23.25 47.25s-29.62 32.3-50.48 47.52-36.06 27.16-55.47 42.53c-19.4 15.38-30.8 34.17-44.22 53.78s-23.51 55.69-16.3 79.14c7.2 23.45 23.42 40.9 41.47 56.53 18.05 15.64 55.11 22.14 73.5 6 18.39-16.15 38.3-38.33 30.47-63.97-7.82-25.65-45.39-28.55-63.22-11.78-.94-56.2 91.16-27.42 89.99 16.01-1.16 43.43-26.47 87.36-69.67 100.31-43.19 12.95-96.76-7.24-126.32-39.32 10.92-1.33 21.38-4.38 32-7-2.12-26.28-36.97.92-47.92-12.08-10.94-13-16.39-29.78-23.08-44.92 8.41-2.09 51.28 14.81 50.97-1.02-.3-15.84-36.68-6.46-48.19-15.76-11.52-9.3-8.78-35.99-6.78-53.22 21.9-3.24 28.92 20.42 50.22 20.78 21.31.35 3.51-21.47-18.9-25.1-22.41-3.64-26.87-15.53-18.4-36.76 8.48-21.22 26.51-21.3 38.33-6.17 11.81 15.14 39.09 27.45 32.98 10.02s-27.52-20.03-39.48-32.52C336.8 625.75 359.27 611.44 371 602c10.99 12.33 52.93 61.18 49.23 34.77-3.71-26.41-64.67-41.3-14.23-55.77 14.17 11.5 30 42.33 48 40-2.7-21.51-25.55-32.32-39-47 27.66-18.95 39.59-11.81 60.25 13.75C495.92 613.3 485.64 555.21 458 555c5.15-7.51 16.07-10.94 23-17 17-4.6 29.56 34.8 42.08 28.08 12.51-6.73-18.91-36.56-30.08-36.08 5.57-7.94 12.64-16.51 21-22m-46 325c-6.5-.66-14.33 1.32-20-1 6.54-.17 13.93-1.72 20 1Z"/>
</svg>
</g>
<text fill="white" dominant-baseline="middle" text-anchor="middle" x="475" y="75" style="font-family:sans-serif;font-size:70px">Download</text>
<text fill="white" dominant-baseline="middle" text-anchor="middle" x="475" y="175" style="font-family:sans-serif;font-size:120px">TR2X</text>
</svg>
