<svg xmlns="http://www.w3.org/2000/svg" xml:space="preserve" height="80" viewBox="0 0 700 260">
<rect width="700" height="260" fill="dodgerblue" rx="50" ry="50"/>
<g transform="translate(60 32) scale(0.7)" style="fill:none;stroke:white;stroke-width:8;stroke-linecap:butt;stroke-linejoin:miter;stroke-miterlimit:10;stroke-dasharray:none;stroke-opacity:1">
<path transform="translate(238.843 238.343)" d="m0 0-15.683-27.165-31.495.074L-62.99.148l15.684 27.164 31.495-.074z"/>
<path transform="translate(0.62 143.116)" d="m0 0 15.811-27.238 31.495-.074L62.99-.148 47.178 27.091l-31.495.074Z"/>
<path transform="translate(227.585 11.457)" d="m0 0 15.683 27.165L-.128 54.403l-31.495.074-15.683-27.165L-31.495.074Z"/>
<path transform="translate(90.487 173.112)" d="M0 0c-18.457-31.969-6.844-73.227 25.938-92.154s74.319-8.354 92.776 23.614c16.17 28.007 9.261 63.144-14.742 84.149a70.5 70.5 0 0 1-11.195 8.005C59.995 42.541 18.457 31.969 0 0Z"/>
<path transform="translate(121.04 155.472)" d="M0 0c-8.956-15.513-3.321-35.534 12.586-44.718s36.064-4.054 45.021 11.459c7.846 13.59 4.493 30.641-7.154 40.833a34 34 0 0 1-5.433 3.885C29.113 20.643 8.956 15.513 0 0Z"/>
<path transform="translate(155.441 148.537)" d="m0 0 10.619 18.393"/>
<path transform="translate(167.18 110.679)" d="m0 0-11.352 18.443"/>
<path transform="translate(138.435 139.17)" d="m0 0-21.649.62"/>
<path transform="translate(16.438 115.878)" d="M0 0c7.407-37.351 30.63-71.733 66.706-92.562 35.871-20.71 76.995-23.723 112.9-11.704"/>
<path transform="translate(189.827 266.3)" d="M0 0c-59.824 19.518-126.482-3.692-158.449-59.062a130.3 130.3 0 0 1-14.4-36.959"/>
<path transform="translate(243.017 39.056)" d="M0 0a130.3 130.3 0 0 1 25.294 31.39C57.566 87.287 43.776 157.415-4.13 199.337"/>
<path transform="translate(226.142 189.922)" d="m0 0 25.677 17.19"/>
<path transform="translate(232.51 178.697)" d="m0 0 27.842 13.447"/>
<path transform="translate(237.254 166.706)" d="m0 0 29.466 9.443"/>
<path transform="translate(240.28 154.18)" d="m0 0 30.516 5.255"/>
<path transform="translate(241.533 141.365)" d="m0 0 30.973.965"/>
<path transform="translate(240.985 128.51)" d="m0 0 30.826-3.344"/>
<path transform="translate(238.648 115.863)" d="m0 0 30.08-7.588"/>
<path transform="translate(234.567 103.672)" d="m0 0 28.748-11.684"/>
<path transform="translate(106.63 118.008)" d="m0 0-14.554-7.029"/>
<path transform="translate(101.914 137.523)" d="m0 0-16.191-.504"/>
<path transform="translate(105.555 157.227)" d="m0 0-15.028 6.108"/>
<path transform="translate(117.474 174.222)" d="m0 0-11.039 11.886"/>
<path transform="translate(103.146 127.855)" d="m0 0-15.731-3.713"/>
<path transform="translate(102.765 147.929)" d="m0 0-15.916 3.012"/>
<path transform="translate(110.584 166.377)" d="m0 0-13.35 9.216"/>
<path transform="translate(125.9 180.39)" d="m0 0-8.204 13.994"/>
<path transform="translate(170.852 95.687)" d="m0 0 7.07-14.523"/>
<path transform="translate(158.037 91.59)" d="m0 0 2.788-15.933"/>
<path transform="translate(144.61 91.181)" d="m0 0-1.71-16.108"/>
<path transform="translate(131.608 94.494)" d="m0 0-6.075-15.036"/>
<path transform="translate(188.497 167.256)" d="m0 0 13.016 9.582"/>
<path transform="translate(194.844 155.404)" d="m0 0 15.177 5.629"/>
<path transform="translate(197.67 142.28)" d="m0 0 16.161 1.24"/>
<path transform="translate(196.755 128.9)" d="m0 0 15.894-3.245"/>
<path transform="translate(168.151 201.816)" d="m0 0-4.128-13.097a52 52 0 0 0 10.851-4.712C32.064-32.44 40.444-65.366 25.441-91.352a56 56 0 0 0-4.414-6.536l11.459-9.126"/>
<path transform="translate(71.284 193.486)" d="m0 0-23.488 16.337"/>
<path transform="translate(164.392 246.075)" d="M0 0c-43.231 6.616-87.586-12.632-110.29-51.956a106 106 0 0 1-5.84-11.746"/>
<path transform="translate(129.087 258.778)" d="m0 0 4.777-27.605"/>
<path transform="translate(83.466 64.807)" d="M0 0a104.7 104.7 0 0 1 16.709-11.992"/>
<path transform="translate(100.175 52.814)" d="M0 0a104.7 104.7 0 0 1 18.74-8.475"/>
<path transform="translate(113.99 29.288)" d="m0 0 4.926 15.051"/>
<path transform="translate(157.752 21.836)" d="m0 0-1.159 17.144a102.7 102.7 0 0 0-37.677 5.359"/>
<path transform="translate(72.894 53.015)" d="m0 0 10.572 11.792"/>
<path transform="translate(90.333 35.767)" d="m0 0 9.842 17.047"/>
<path transform="translate(44.56 87.188)" d="m0 0 15.426 7.568a102.7 102.7 0 0 1 23.481-29.949"/>
</g>
<text fill="white" dominant-baseline="middle" text-anchor="middle" x="475" y="75" style="font-family:sans-serif;font-size:70px">Download</text>
<text fill="white" dominant-baseline="middle" text-anchor="middle" x="475" y="175" style="font-family:sans-serif;font-size:120px">TR1X</text>
</svg>
