<svg version="1.1" width="698" height="328" xmlns="http://www.w3.org/2000/svg">
<rect width="12" height="12" x="0" y="0" fill="lightpink"/>
<rect width="12" height="12" x="14" y="0" fill="lightpink"/>
<rect width="12" height="12" x="28" y="0" fill="lightpink"/>
<rect width="12" height="12" x="42" y="0" fill="lightpink"/>
<rect width="12" height="12" x="56" y="0" fill="lightpink"/>
<rect width="12" height="12" x="70" y="0" fill="lightpink"/>
<rect width="12" height="12" x="84" y="0" fill="lightpink"/>
<rect width="12" height="12" x="98" y="0" fill="lightpink"/>
<rect width="12" height="12" x="112" y="0" fill="lightpink"/>
<rect width="12" height="12" x="126" y="0" fill="lightpink"/>
<rect width="12" height="12" x="140" y="0" fill="lightpink"/>
<rect width="12" height="12" x="154" y="0" fill="lightpink"/>
<rect width="12" height="12" x="168" y="0" fill="lightpink"/>
<rect width="12" height="12" x="182" y="0" fill="lightpink"/>
<rect width="12" height="12" x="196" y="0" fill="lightpink"/>
<rect width="12" height="12" x="210" y="0" fill="lightpink"/>
<rect width="12" height="12" x="224" y="0" fill="lightpink"/>
<rect width="12" height="12" x="238" y="0" fill="lightpink"/>
<rect width="12" height="12" x="252" y="0" fill="mistyrose"/>
<rect width="12" height="12" x="266" y="0" fill="mistyrose"/>
<rect width="12" height="12" x="280" y="0" fill="lightpink"/>
<rect width="12" height="12" x="294" y="0" fill="lightpink"/>
<rect width="12" height="12" x="308" y="0" fill="lightpink"/>
<rect width="12" height="12" x="322" y="0" fill="lightpink"/>
<rect width="12" height="12" x="336" y="0" fill="lightpink"/>
<rect width="12" height="12" x="350" y="0" fill="lightpink"/>
<rect width="12" height="12" x="364" y="0" fill="lightpink"/>
<rect width="12" height="12" x="378" y="0" fill="lightpink"/>
<rect width="12" height="12" x="392" y="0" fill="lightpink"/>
<rect width="12" height="12" x="406" y="0" fill="lightpink"/>
<rect width="12" height="12" x="420" y="0" fill="lightpink"/>
<rect width="12" height="12" x="434" y="0" fill="lightpink"/>
<rect width="12" height="12" x="448" y="0" fill="lightpink"/>
<rect width="12" height="12" x="462" y="0" fill="lightpink"/>
<rect width="12" height="12" x="476" y="0" fill="lightpink"/>
<rect width="12" height="12" x="490" y="0" fill="lightpink"/>
<rect width="12" height="12" x="504" y="0" fill="lightpink"/>
<rect width="12" height="12" x="518" y="0" fill="mistyrose"/>
<rect width="12" height="12" x="532" y="0" fill="mistyrose"/>
<rect width="12" height="12" x="546" y="0" fill="lightpink"/>
<rect width="12" height="12" x="560" y="0" fill="lightpink"/>
<rect width="12" height="12" x="574" y="0" fill="mistyrose"/>
<rect width="12" height="12" x="588" y="0" fill="mistyrose"/>
<rect width="12" height="12" x="602" y="0" fill="mistyrose"/>
<rect width="12" height="12" x="616" y="0" fill="mistyrose"/>
<rect width="12" height="12" x="630" y="0" fill="lightpink"/>
<rect width="12" height="12" x="644" y="0" fill="mistyrose"/>
<rect width="12" height="12" x="658" y="0" fill="mistyrose"/>
<rect width="12" height="12" x="672" y="0" fill="mistyrose"/>
<rect width="12" height="12" x="686" y="0" fill="lightpink"/>
<rect width="12" height="12" x="0" y="14" fill="mistyrose"/>
<rect width="12" height="12" x="14" y="14" fill="mistyrose"/>
<rect width="12" height="12" x="28" y="14" fill="mistyrose"/>
<rect width="12" height="12" x="42" y="14" fill="mistyrose"/>
<rect width="12" height="12" x="56" y="14" fill="mistyrose"/>
<rect width="12" height="12" x="70" y="14" fill="mistyrose"/>
<rect width="12" height="12" x="84" y="14" fill="mistyrose"/>
<rect width="12" height="12" x="98" y="14" fill="mistyrose"/>
<rect width="12" height="12" x="112" y="14" fill="mistyrose"/>
<rect width="12" height="12" x="126" y="14" fill="mistyrose"/>
<rect width="12" height="12" x="140" y="14" fill="mistyrose"/>
<rect width="12" height="12" x="154" y="14" fill="mistyrose"/>
<rect width="12" height="12" x="168" y="14" fill="mistyrose"/>
<rect width="12" height="12" x="182" y="14" fill="mistyrose"/>
<rect width="12" height="12" x="196" y="14" fill="mistyrose"/>
<rect width="12" height="12" x="210" y="14" fill="mistyrose"/>
<rect width="12" height="12" x="224" y="14" fill="mistyrose"/>
<rect width="12" height="12" x="238" y="14" fill="mistyrose"/>
<rect width="12" height="12" x="252" y="14" fill="mistyrose"/>
<rect width="12" height="12" x="266" y="14" fill="lightpink"/>
<rect width="12" height="12" x="280" y="14" fill="mistyrose"/>
<rect width="12" height="12" x="294" y="14" fill="mistyrose"/>
<rect width="12" height="12" x="308" y="14" fill="mistyrose"/>
<rect width="12" height="12" x="322" y="14" fill="mistyrose"/>
<rect width="12" height="12" x="336" y="14" fill="mistyrose"/>
<rect width="12" height="12" x="350" y="14" fill="mistyrose"/>
<rect width="12" height="12" x="364" y="14" fill="mistyrose"/>
<rect width="12" height="12" x="378" y="14" fill="mistyrose"/>
<rect width="12" height="12" x="392" y="14" fill="mistyrose"/>
<rect width="12" height="12" x="406" y="14" fill="mistyrose"/>
<rect width="12" height="12" x="420" y="14" fill="mistyrose"/>
<rect width="12" height="12" x="434" y="14" fill="mistyrose"/>
<rect width="12" height="12" x="448" y="14" fill="mistyrose"/>
<rect width="12" height="12" x="462" y="14" fill="mistyrose"/>
<rect width="12" height="12" x="476" y="14" fill="mistyrose"/>
<rect width="12" height="12" x="490" y="14" fill="mistyrose"/>
<rect width="12" height="12" x="504" y="14" fill="mistyrose"/>
<rect width="12" height="12" x="518" y="14" fill="mistyrose"/>
<rect width="12" height="12" x="532" y="14" fill="mistyrose"/>
<rect width="12" height="12" x="546" y="14" fill="mistyrose"/>
<rect width="12" height="12" x="560" y="14" fill="mistyrose"/>
<rect width="12" height="12" x="574" y="14" fill="mistyrose"/>
<rect width="12" height="12" x="588" y="14" fill="mistyrose"/>
<rect width="12" height="12" x="602" y="14" fill="mistyrose"/>
<rect width="12" height="12" x="616" y="14" fill="mistyrose"/>
<rect width="12" height="12" x="630" y="14" fill="mistyrose"/>
<rect width="12" height="12" x="644" y="14" fill="mistyrose"/>
<rect width="12" height="12" x="658" y="14" fill="mistyrose"/>
<rect width="12" height="12" x="672" y="14" fill="mistyrose"/>
<rect width="12" height="12" x="686" y="14" fill="mistyrose"/>
<rect width="12" height="12" x="0" y="28" fill="mistyrose"/>
<rect width="12" height="12" x="14" y="28" fill="lightpink"/>
<rect width="12" height="12" x="28" y="28" fill="lightpink"/>
<rect width="12" height="12" x="42" y="28" fill="lightpink"/>
<rect width="12" height="12" x="56" y="28" fill="lightpink"/>
<rect width="12" height="12" x="70" y="28" fill="lightpink"/>
<rect width="12" height="12" x="84" y="28" fill="mistyrose"/>
<rect width="12" height="12" x="98" y="28" fill="mistyrose"/>
<rect width="12" height="12" x="112" y="28" fill="lightpink"/>
<rect width="12" height="12" x="126" y="28" fill="lightpink"/>
<rect width="12" height="12" x="140" y="28" fill="mistyrose"/>
<rect width="12" height="12" x="154" y="28" fill="mistyrose"/>
<rect width="12" height="12" x="168" y="28" fill="lightpink"/>
<rect width="12" height="12" x="182" y="28" fill="lightpink"/>
<rect width="12" height="12" x="196" y="28" fill="lightpink"/>
<rect width="12" height="12" x="210" y="28" fill="lightpink"/>
<rect width="12" height="12" x="224" y="28" fill="lightpink"/>
<rect width="12" height="12" x="238" y="28" fill="lightpink"/>
<rect width="12" height="12" x="252" y="28" fill="mistyrose"/>
<rect width="12" height="12" x="266" y="28" fill="mistyrose"/>
<rect width="12" height="12" x="280" y="28" fill="mistyrose"/>
<rect width="12" height="12" x="294" y="28" fill="mistyrose"/>
<rect width="12" height="12" x="308" y="28" fill="mistyrose"/>
<rect width="12" height="12" x="322" y="28" fill="mistyrose"/>
<rect width="12" height="12" x="336" y="28" fill="mistyrose"/>
<rect width="12" height="12" x="350" y="28" fill="mistyrose"/>
<rect width="12" height="12" x="364" y="28" fill="lightpink"/>
<rect width="12" height="12" x="378" y="28" fill="lightpink"/>
<rect width="12" height="12" x="392" y="28" fill="lightpink"/>
<rect width="12" height="12" x="406" y="28" fill="lightpink"/>
<rect width="12" height="12" x="420" y="28" fill="lightpink"/>
<rect width="12" height="12" x="434" y="28" fill="lightpink"/>
<rect width="12" height="12" x="448" y="28" fill="lightpink"/>
<rect width="12" height="12" x="462" y="28" fill="lightpink"/>
<rect width="12" height="12" x="476" y="28" fill="lightpink"/>
<rect width="12" height="12" x="490" y="28" fill="lightpink"/>
<rect width="12" height="12" x="504" y="28" fill="lightpink"/>
<rect width="12" height="12" x="518" y="28" fill="lightpink"/>
<rect width="12" height="12" x="532" y="28" fill="lightpink"/>
<rect width="12" height="12" x="546" y="28" fill="lightpink"/>
<rect width="12" height="12" x="560" y="28" fill="lightpink"/>
<rect width="12" height="12" x="574" y="28" fill="lightpink"/>
<rect width="12" height="12" x="588" y="28" fill="lightpink"/>
<rect width="12" height="12" x="602" y="28" fill="lightpink"/>
<rect width="12" height="12" x="616" y="28" fill="lightpink"/>
<rect width="12" height="12" x="630" y="28" fill="lightpink"/>
<rect width="12" height="12" x="644" y="28" fill="lightpink"/>
<rect width="12" height="12" x="658" y="28" fill="lightpink"/>
<rect width="12" height="12" x="672" y="28" fill="lightpink"/>
<rect width="12" height="12" x="686" y="28" fill="forestgreen"/>
<rect width="12" height="12" x="0" y="42" fill="lightpink"/>
<rect width="12" height="12" x="14" y="42" fill="lightpink"/>
<rect width="12" height="12" x="28" y="42" fill="lightpink"/>
<rect width="12" height="12" x="42" y="42" fill="lightpink"/>
<rect width="12" height="12" x="56" y="42" fill="lightpink"/>
<rect width="12" height="12" x="70" y="42" fill="lightpink"/>
<rect width="12" height="12" x="84" y="42" fill="lightpink"/>
<rect width="12" height="12" x="98" y="42" fill="lightpink"/>
<rect width="12" height="12" x="112" y="42" fill="lightpink"/>
<rect width="12" height="12" x="126" y="42" fill="lightpink"/>
<rect width="12" height="12" x="140" y="42" fill="lightpink"/>
<rect width="12" height="12" x="154" y="42" fill="lightpink"/>
<rect width="12" height="12" x="168" y="42" fill="lightpink"/>
<rect width="12" height="12" x="182" y="42" fill="lightpink"/>
<rect width="12" height="12" x="196" y="42" fill="lightpink"/>
<rect width="12" height="12" x="210" y="42" fill="lightpink"/>
<rect width="12" height="12" x="224" y="42" fill="lightpink"/>
<rect width="12" height="12" x="238" y="42" fill="lightpink"/>
<rect width="12" height="12" x="252" y="42" fill="lightpink"/>
<rect width="12" height="12" x="266" y="42" fill="lightpink"/>
<rect width="12" height="12" x="280" y="42" fill="lightpink"/>
<rect width="12" height="12" x="294" y="42" fill="lightpink"/>
<rect width="12" height="12" x="308" y="42" fill="lightpink"/>
<rect width="12" height="12" x="322" y="42" fill="lightpink"/>
<rect width="12" height="12" x="336" y="42" fill="lightpink"/>
<rect width="12" height="12" x="350" y="42" fill="mistyrose"/>
<rect width="12" height="12" x="364" y="42" fill="lightpink"/>
<rect width="12" height="12" x="378" y="42" fill="lightpink"/>
<rect width="12" height="12" x="392" y="42" fill="lightpink"/>
<rect width="12" height="12" x="406" y="42" fill="mistyrose"/>
<rect width="12" height="12" x="420" y="42" fill="lightpink"/>
<rect width="12" height="12" x="434" y="42" fill="lightpink"/>
<rect width="12" height="12" x="448" y="42" fill="lightpink"/>
<rect width="12" height="12" x="462" y="42" fill="lightpink"/>
<rect width="12" height="12" x="476" y="42" fill="lightpink"/>
<rect width="12" height="12" x="490" y="42" fill="lightpink"/>
<rect width="12" height="12" x="504" y="42" fill="lightpink"/>
<rect width="12" height="12" x="518" y="42" fill="lightpink"/>
<rect width="12" height="12" x="532" y="42" fill="lightpink"/>
<rect width="12" height="12" x="546" y="42" fill="lightpink"/>
<rect width="12" height="12" x="560" y="42" fill="lightpink"/>
<rect width="12" height="12" x="574" y="42" fill="lightpink"/>
<rect width="12" height="12" x="588" y="42" fill="lightpink"/>
<rect width="12" height="12" x="602" y="42" fill="lightpink"/>
<rect width="12" height="12" x="616" y="42" fill="lightpink"/>
<rect width="12" height="12" x="630" y="42" fill="lightpink"/>
<rect width="12" height="12" x="644" y="42" fill="lightpink"/>
<rect width="12" height="12" x="658" y="42" fill="lightpink"/>
<rect width="12" height="12" x="672" y="42" fill="lightpink"/>
<rect width="12" height="12" x="686" y="42" fill="mistyrose"/>
<rect width="12" height="12" x="0" y="56" fill="mistyrose"/>
<rect width="12" height="12" x="14" y="56" fill="mistyrose"/>
<rect width="12" height="12" x="28" y="56" fill="mistyrose"/>
<rect width="12" height="12" x="42" y="56" fill="mistyrose"/>
<rect width="12" height="12" x="56" y="56" fill="lightpink"/>
<rect width="12" height="12" x="70" y="56" fill="lightpink"/>
<rect width="12" height="12" x="84" y="56" fill="lightpink"/>
<rect width="12" height="12" x="98" y="56" fill="lightpink"/>
<rect width="12" height="12" x="112" y="56" fill="lightpink"/>
<rect width="12" height="12" x="126" y="56" fill="lightpink"/>
<rect width="12" height="12" x="140" y="56" fill="lightpink"/>
<rect width="12" height="12" x="154" y="56" fill="lightpink"/>
<rect width="12" height="12" x="168" y="56" fill="lightpink"/>
<rect width="12" height="12" x="182" y="56" fill="lightpink"/>
<rect width="12" height="12" x="196" y="56" fill="lightpink"/>
<rect width="12" height="12" x="210" y="56" fill="lightpink"/>
<rect width="12" height="12" x="224" y="56" fill="lightpink"/>
<rect width="12" height="12" x="238" y="56" fill="lightpink"/>
<rect width="12" height="12" x="252" y="56" fill="lightpink"/>
<rect width="12" height="12" x="266" y="56" fill="lightpink"/>
<rect width="12" height="12" x="280" y="56" fill="lightpink"/>
<rect width="12" height="12" x="294" y="56" fill="lightpink"/>
<rect width="12" height="12" x="308" y="56" fill="lightpink"/>
<rect width="12" height="12" x="322" y="56" fill="lightpink"/>
<rect width="12" height="12" x="336" y="56" fill="lightpink"/>
<rect width="12" height="12" x="350" y="56" fill="lightpink"/>
<rect width="12" height="12" x="364" y="56" fill="lightpink"/>
<rect width="12" height="12" x="378" y="56" fill="lightpink"/>
<rect width="12" height="12" x="392" y="56" fill="lightpink"/>
<rect width="12" height="12" x="406" y="56" fill="lightpink"/>
<rect width="12" height="12" x="420" y="56" fill="lightpink"/>
<rect width="12" height="12" x="434" y="56" fill="lightpink"/>
<rect width="12" height="12" x="448" y="56" fill="forestgreen"/>
<rect width="12" height="12" x="462" y="56" fill="lightpink"/>
<rect width="12" height="12" x="476" y="56" fill="forestgreen"/>
<rect width="12" height="12" x="490" y="56" fill="lightpink"/>
<rect width="12" height="12" x="504" y="56" fill="lightpink"/>
<rect width="12" height="12" x="518" y="56" fill="forestgreen"/>
<rect width="12" height="12" x="532" y="56" fill="lightpink"/>
<rect width="12" height="12" x="546" y="56" fill="forestgreen"/>
<rect width="12" height="12" x="560" y="56" fill="forestgreen"/>
<rect width="12" height="12" x="574" y="56" fill="lightpink"/>
<rect width="12" height="12" x="588" y="56" fill="lightpink"/>
<rect width="12" height="12" x="602" y="56" fill="lightpink"/>
<rect width="12" height="12" x="616" y="56" fill="lightpink"/>
<rect width="12" height="12" x="630" y="56" fill="lightpink"/>
<rect width="12" height="12" x="644" y="56" fill="lightpink"/>
<rect width="12" height="12" x="658" y="56" fill="lightpink"/>
<rect width="12" height="12" x="672" y="56" fill="lightpink"/>
<rect width="12" height="12" x="686" y="56" fill="lightpink"/>
<rect width="12" height="12" x="0" y="70" fill="lightpink"/>
<rect width="12" height="12" x="14" y="70" fill="lightpink"/>
<rect width="12" height="12" x="28" y="70" fill="lightpink"/>
<rect width="12" height="12" x="42" y="70" fill="mistyrose"/>
<rect width="12" height="12" x="56" y="70" fill="lightpink"/>
<rect width="12" height="12" x="70" y="70" fill="lightpink"/>
<rect width="12" height="12" x="84" y="70" fill="forestgreen"/>
<rect width="12" height="12" x="98" y="70" fill="forestgreen"/>
<rect width="12" height="12" x="112" y="70" fill="forestgreen"/>
<rect width="12" height="12" x="126" y="70" fill="forestgreen"/>
<rect width="12" height="12" x="140" y="70" fill="forestgreen"/>
<rect width="12" height="12" x="154" y="70" fill="forestgreen"/>
<rect width="12" height="12" x="168" y="70" fill="lightpink"/>
<rect width="12" height="12" x="182" y="70" fill="lightpink"/>
<rect width="12" height="12" x="196" y="70" fill="lightpink"/>
<rect width="12" height="12" x="210" y="70" fill="lightpink"/>
<rect width="12" height="12" x="224" y="70" fill="forestgreen"/>
<rect width="12" height="12" x="238" y="70" fill="forestgreen"/>
<rect width="12" height="12" x="252" y="70" fill="forestgreen"/>
<rect width="12" height="12" x="266" y="70" fill="forestgreen"/>
<rect width="12" height="12" x="280" y="70" fill="forestgreen"/>
<rect width="12" height="12" x="294" y="70" fill="forestgreen"/>
<rect width="12" height="12" x="308" y="70" fill="mistyrose"/>
<rect width="12" height="12" x="322" y="70" fill="lightpink"/>
<rect width="12" height="12" x="336" y="70" fill="forestgreen"/>
<rect width="12" height="12" x="350" y="70" fill="lightpink"/>
<rect width="12" height="12" x="364" y="70" fill="forestgreen"/>
<rect width="12" height="12" x="378" y="70" fill="lightpink"/>
<rect width="12" height="12" x="392" y="70" fill="lightpink"/>
<rect width="12" height="12" x="406" y="70" fill="lightpink"/>
<rect width="12" height="12" x="420" y="70" fill="lightpink"/>
<rect width="12" height="12" x="434" y="70" fill="lightpink"/>
<rect width="12" height="12" x="448" y="70" fill="lightpink"/>
<rect width="12" height="12" x="462" y="70" fill="lightpink"/>
<rect width="12" height="12" x="476" y="70" fill="lightpink"/>
<rect width="12" height="12" x="490" y="70" fill="lightpink"/>
<rect width="12" height="12" x="504" y="70" fill="lightpink"/>
<rect width="12" height="12" x="518" y="70" fill="lightpink"/>
<rect width="12" height="12" x="532" y="70" fill="lightpink"/>
<rect width="12" height="12" x="546" y="70" fill="lightpink"/>
<rect width="12" height="12" x="560" y="70" fill="lightpink"/>
<rect width="12" height="12" x="574" y="70" fill="lightpink"/>
<rect width="12" height="12" x="588" y="70" fill="lightpink"/>
<rect width="12" height="12" x="602" y="70" fill="lightpink"/>
<rect width="12" height="12" x="616" y="70" fill="lightpink"/>
<rect width="12" height="12" x="630" y="70" fill="lightpink"/>
<rect width="12" height="12" x="644" y="70" fill="lightpink"/>
<rect width="12" height="12" x="658" y="70" fill="lightpink"/>
<rect width="12" height="12" x="672" y="70" fill="lightpink"/>
<rect width="12" height="12" x="686" y="70" fill="lightpink"/>
<rect width="12" height="12" x="0" y="84" fill="lightpink"/>
<rect width="12" height="12" x="14" y="84" fill="lightpink"/>
<rect width="12" height="12" x="28" y="84" fill="lightpink"/>
<rect width="12" height="12" x="42" y="84" fill="lightpink"/>
<rect width="12" height="12" x="56" y="84" fill="lightpink"/>
<rect width="12" height="12" x="70" y="84" fill="lightpink"/>
<rect width="12" height="12" x="84" y="84" fill="lightpink"/>
<rect width="12" height="12" x="98" y="84" fill="lightpink"/>
<rect width="12" height="12" x="112" y="84" fill="lightpink"/>
<rect width="12" height="12" x="126" y="84" fill="lightpink"/>
<rect width="12" height="12" x="140" y="84" fill="lightpink"/>
<rect width="12" height="12" x="154" y="84" fill="lightpink"/>
<rect width="12" height="12" x="168" y="84" fill="lightpink"/>
<rect width="12" height="12" x="182" y="84" fill="lightpink"/>
<rect width="12" height="12" x="196" y="84" fill="lightpink"/>
<rect width="12" height="12" x="210" y="84" fill="lightpink"/>
<rect width="12" height="12" x="224" y="84" fill="lightpink"/>
<rect width="12" height="12" x="238" y="84" fill="lightpink"/>
<rect width="12" height="12" x="252" y="84" fill="forestgreen"/>
<rect width="12" height="12" x="266" y="84" fill="lightpink"/>
<rect width="12" height="12" x="280" y="84" fill="lightpink"/>
<rect width="12" height="12" x="294" y="84" fill="lightpink"/>
<rect width="12" height="12" x="308" y="84" fill="lightpink"/>
<rect width="12" height="12" x="322" y="84" fill="forestgreen"/>
<rect width="12" height="12" x="336" y="84" fill="forestgreen"/>
<rect width="12" height="12" x="350" y="84" fill="forestgreen"/>
<rect width="12" height="12" x="364" y="84" fill="forestgreen"/>
<rect width="12" height="12" x="378" y="84" fill="forestgreen"/>
<rect width="12" height="12" x="392" y="84" fill="forestgreen"/>
<rect width="12" height="12" x="406" y="84" fill="forestgreen"/>
<rect width="12" height="12" x="420" y="84" fill="forestgreen"/>
<rect width="12" height="12" x="434" y="84" fill="forestgreen"/>
<rect width="12" height="12" x="448" y="84" fill="forestgreen"/>
<rect width="12" height="12" x="462" y="84" fill="forestgreen"/>
<rect width="12" height="12" x="476" y="84" fill="forestgreen"/>
<rect width="12" height="12" x="490" y="84" fill="forestgreen"/>
<rect width="12" height="12" x="504" y="84" fill="forestgreen"/>
<rect width="12" height="12" x="518" y="84" fill="forestgreen"/>
<rect width="12" height="12" x="532" y="84" fill="forestgreen"/>
<rect width="12" height="12" x="546" y="84" fill="forestgreen"/>
<rect width="12" height="12" x="560" y="84" fill="forestgreen"/>
<rect width="12" height="12" x="574" y="84" fill="forestgreen"/>
<rect width="12" height="12" x="588" y="84" fill="forestgreen"/>
<rect width="12" height="12" x="602" y="84" fill="forestgreen"/>
<rect width="12" height="12" x="616" y="84" fill="forestgreen"/>
<rect width="12" height="12" x="630" y="84" fill="lightpink"/>
<rect width="12" height="12" x="644" y="84" fill="lightpink"/>
<rect width="12" height="12" x="658" y="84" fill="lightpink"/>
<rect width="12" height="12" x="672" y="84" fill="lightpink"/>
<rect width="12" height="12" x="686" y="84" fill="lightpink"/>
<rect width="12" height="12" x="0" y="98" fill="lightpink"/>
<rect width="12" height="12" x="14" y="98" fill="lightpink"/>
<rect width="12" height="12" x="28" y="98" fill="lightpink"/>
<rect width="12" height="12" x="42" y="98" fill="lightpink"/>
<rect width="12" height="12" x="56" y="98" fill="lightpink"/>
<rect width="12" height="12" x="70" y="98" fill="lightpink"/>
<rect width="12" height="12" x="84" y="98" fill="lightpink"/>
<rect width="12" height="12" x="98" y="98" fill="lightpink"/>
<rect width="12" height="12" x="112" y="98" fill="lightpink"/>
<rect width="12" height="12" x="126" y="98" fill="lightpink"/>
<rect width="12" height="12" x="140" y="98" fill="lightpink"/>
<rect width="12" height="12" x="154" y="98" fill="lightpink"/>
<rect width="12" height="12" x="168" y="98" fill="lightpink"/>
<rect width="12" height="12" x="182" y="98" fill="lightpink"/>
<rect width="12" height="12" x="196" y="98" fill="lightpink"/>
<rect width="12" height="12" x="210" y="98" fill="lightpink"/>
<rect width="12" height="12" x="224" y="98" fill="lightpink"/>
<rect width="12" height="12" x="238" y="98" fill="lightpink"/>
<rect width="12" height="12" x="252" y="98" fill="lightpink"/>
<rect width="12" height="12" x="266" y="98" fill="lightpink"/>
<rect width="12" height="12" x="280" y="98" fill="lightpink"/>
<rect width="12" height="12" x="294" y="98" fill="lightpink"/>
<rect width="12" height="12" x="308" y="98" fill="lightpink"/>
<rect width="12" height="12" x="322" y="98" fill="lightpink"/>
<rect width="12" height="12" x="336" y="98" fill="lightpink"/>
<rect width="12" height="12" x="350" y="98" fill="lightpink"/>
<rect width="12" height="12" x="364" y="98" fill="lightpink"/>
<rect width="12" height="12" x="378" y="98" fill="lightpink"/>
<rect width="12" height="12" x="392" y="98" fill="lightpink"/>
<rect width="12" height="12" x="406" y="98" fill="lightpink"/>
<rect width="12" height="12" x="420" y="98" fill="lightpink"/>
<rect width="12" height="12" x="434" y="98" fill="lightpink"/>
<rect width="12" height="12" x="448" y="98" fill="lightpink"/>
<rect width="12" height="12" x="462" y="98" fill="lightpink"/>
<rect width="12" height="12" x="476" y="98" fill="lightpink"/>
<rect width="12" height="12" x="490" y="98" fill="lightpink"/>
<rect width="12" height="12" x="504" y="98" fill="lightpink"/>
<rect width="12" height="12" x="518" y="98" fill="lightpink"/>
<rect width="12" height="12" x="532" y="98" fill="lightpink"/>
<rect width="12" height="12" x="546" y="98" fill="lightpink"/>
<rect width="12" height="12" x="560" y="98" fill="lightpink"/>
<rect width="12" height="12" x="574" y="98" fill="lightpink"/>
<rect width="12" height="12" x="588" y="98" fill="lightpink"/>
<rect width="12" height="12" x="602" y="98" fill="lightpink"/>
<rect width="12" height="12" x="616" y="98" fill="lightpink"/>
<rect width="12" height="12" x="630" y="98" fill="lightpink"/>
<rect width="12" height="12" x="644" y="98" fill="lightpink"/>
<rect width="12" height="12" x="658" y="98" fill="lightpink"/>
<rect width="12" height="12" x="672" y="98" fill="lightpink"/>
<rect width="12" height="12" x="686" y="98" fill="lightpink"/>
<rect width="12" height="12" x="0" y="112" fill="lightpink"/>
<rect width="12" height="12" x="14" y="112" fill="lightpink"/>
<rect width="12" height="12" x="28" y="112" fill="lightpink"/>
<rect width="12" height="12" x="42" y="112" fill="lightpink"/>
<rect width="12" height="12" x="56" y="112" fill="lightpink"/>
<rect width="12" height="12" x="70" y="112" fill="lightpink"/>
<rect width="12" height="12" x="84" y="112" fill="lightpink"/>
<rect width="12" height="12" x="98" y="112" fill="lightpink"/>
<rect width="12" height="12" x="112" y="112" fill="lightpink"/>
<rect width="12" height="12" x="126" y="112" fill="lightpink"/>
<rect width="12" height="12" x="140" y="112" fill="lightpink"/>
<rect width="12" height="12" x="154" y="112" fill="lightpink"/>
<rect width="12" height="12" x="168" y="112" fill="lightpink"/>
<rect width="12" height="12" x="182" y="112" fill="lightpink"/>
<rect width="12" height="12" x="196" y="112" fill="forestgreen"/>
<rect width="12" height="12" x="210" y="112" fill="lightpink"/>
<rect width="12" height="12" x="224" y="112" fill="lightpink"/>
<rect width="12" height="12" x="238" y="112" fill="forestgreen"/>
<rect width="12" height="12" x="252" y="112" fill="lightpink"/>
<rect width="12" height="12" x="266" y="112" fill="lightpink"/>
<rect width="12" height="12" x="280" y="112" fill="lightpink"/>
<rect width="12" height="12" x="294" y="112" fill="lightpink"/>
<rect width="12" height="12" x="308" y="112" fill="lightpink"/>
<rect width="12" height="12" x="322" y="112" fill="lightpink"/>
<rect width="12" height="12" x="336" y="112" fill="lightpink"/>
<rect width="12" height="12" x="350" y="112" fill="lightpink"/>
<rect width="12" height="12" x="364" y="112" fill="lightpink"/>
<rect width="12" height="12" x="378" y="112" fill="lightpink"/>
<rect width="12" height="12" x="392" y="112" fill="lightpink"/>
<rect width="12" height="12" x="406" y="112" fill="lightpink"/>
<rect width="12" height="12" x="420" y="112" fill="lightpink"/>
<rect width="12" height="12" x="434" y="112" fill="lightpink"/>
<rect width="12" height="12" x="448" y="112" fill="lightpink"/>
<rect width="12" height="12" x="462" y="112" fill="lightpink"/>
<rect width="12" height="12" x="476" y="112" fill="lightpink"/>
<rect width="12" height="12" x="490" y="112" fill="lightpink"/>
<rect width="12" height="12" x="504" y="112" fill="lightpink"/>
<rect width="12" height="12" x="518" y="112" fill="lightpink"/>
<rect width="12" height="12" x="532" y="112" fill="lightpink"/>
<rect width="12" height="12" x="546" y="112" fill="lightpink"/>
<rect width="12" height="12" x="560" y="112" fill="lightpink"/>
<rect width="12" height="12" x="574" y="112" fill="lightpink"/>
<rect width="12" height="12" x="588" y="112" fill="lightpink"/>
<rect width="12" height="12" x="602" y="112" fill="lightpink"/>
<rect width="12" height="12" x="616" y="112" fill="lightpink"/>
<rect width="12" height="12" x="630" y="112" fill="lightpink"/>
<rect width="12" height="12" x="644" y="112" fill="lightpink"/>
<rect width="12" height="12" x="658" y="112" fill="lightpink"/>
<rect width="12" height="12" x="672" y="112" fill="lightpink"/>
<rect width="12" height="12" x="686" y="112" fill="lightpink"/>
<rect width="12" height="12" x="0" y="126" fill="mistyrose"/>
<rect width="12" height="12" x="14" y="126" fill="mistyrose"/>
<rect width="12" height="12" x="28" y="126" fill="forestgreen"/>
<rect width="12" height="12" x="42" y="126" fill="forestgreen"/>
<rect width="12" height="12" x="56" y="126" fill="lightpink"/>
<rect width="12" height="12" x="70" y="126" fill="lightpink"/>
<rect width="12" height="12" x="84" y="126" fill="lightpink"/>
<rect width="12" height="12" x="98" y="126" fill="lightpink"/>
<rect width="12" height="12" x="112" y="126" fill="lightpink"/>
<rect width="12" height="12" x="126" y="126" fill="lightpink"/>
<rect width="12" height="12" x="140" y="126" fill="lightpink"/>
<rect width="12" height="12" x="154" y="126" fill="lightpink"/>
<rect width="12" height="12" x="168" y="126" fill="lightpink"/>
<rect width="12" height="12" x="182" y="126" fill="lightpink"/>
<rect width="12" height="12" x="196" y="126" fill="lightpink"/>
<rect width="12" height="12" x="210" y="126" fill="lightpink"/>
<rect width="12" height="12" x="224" y="126" fill="lightpink"/>
<rect width="12" height="12" x="238" y="126" fill="lightpink"/>
<rect width="12" height="12" x="252" y="126" fill="lightpink"/>
<rect width="12" height="12" x="266" y="126" fill="lightpink"/>
<rect width="12" height="12" x="280" y="126" fill="lightpink"/>
<rect width="12" height="12" x="294" y="126" fill="lightpink"/>
<rect width="12" height="12" x="308" y="126" fill="lightpink"/>
<rect width="12" height="12" x="322" y="126" fill="lightpink"/>
<rect width="12" height="12" x="336" y="126" fill="lightpink"/>
<rect width="12" height="12" x="350" y="126" fill="lightpink"/>
<rect width="12" height="12" x="364" y="126" fill="lightpink"/>
<rect width="12" height="12" x="378" y="126" fill="lightpink"/>
<rect width="12" height="12" x="392" y="126" fill="lightpink"/>
<rect width="12" height="12" x="406" y="126" fill="lightpink"/>
<rect width="12" height="12" x="420" y="126" fill="lightpink"/>
<rect width="12" height="12" x="434" y="126" fill="lightpink"/>
<rect width="12" height="12" x="448" y="126" fill="lightpink"/>
<rect width="12" height="12" x="462" y="126" fill="lightpink"/>
<rect width="12" height="12" x="476" y="126" fill="lightpink"/>
<rect width="12" height="12" x="490" y="126" fill="lightpink"/>
<rect width="12" height="12" x="504" y="126" fill="lightpink"/>
<rect width="12" height="12" x="518" y="126" fill="lightpink"/>
<rect width="12" height="12" x="532" y="126" fill="lightpink"/>
<rect width="12" height="12" x="546" y="126" fill="lightpink"/>
<rect width="12" height="12" x="560" y="126" fill="lightpink"/>
<rect width="12" height="12" x="574" y="126" fill="lightpink"/>
<rect width="12" height="12" x="588" y="126" fill="lightpink"/>
<rect width="12" height="12" x="602" y="126" fill="lightpink"/>
<rect width="12" height="12" x="616" y="126" fill="lightpink"/>
<rect width="12" height="12" x="630" y="126" fill="lightpink"/>
<rect width="12" height="12" x="644" y="126" fill="mistyrose"/>
<rect width="12" height="12" x="658" y="126" fill="lightpink"/>
<rect width="12" height="12" x="672" y="126" fill="lightpink"/>
<rect width="12" height="12" x="686" y="126" fill="lightpink"/>
<rect width="12" height="12" x="0" y="140" fill="lightpink"/>
<rect width="12" height="12" x="14" y="140" fill="lightpink"/>
<rect width="12" height="12" x="28" y="140" fill="lightpink"/>
<rect width="12" height="12" x="42" y="140" fill="lightpink"/>
<rect width="12" height="12" x="56" y="140" fill="lightpink"/>
<rect width="12" height="12" x="70" y="140" fill="lightpink"/>
<rect width="12" height="12" x="84" y="140" fill="lightpink"/>
<rect width="12" height="12" x="98" y="140" fill="lightpink"/>
<rect width="12" height="12" x="112" y="140" fill="lightpink"/>
<rect width="12" height="12" x="126" y="140" fill="lightpink"/>
<rect width="12" height="12" x="140" y="140" fill="lightpink"/>
<rect width="12" height="12" x="154" y="140" fill="forestgreen"/>
<rect width="12" height="12" x="168" y="140" fill="forestgreen"/>
<rect width="12" height="12" x="182" y="140" fill="lightpink"/>
<rect width="12" height="12" x="196" y="140" fill="lightpink"/>
<rect width="12" height="12" x="210" y="140" fill="lightpink"/>
<rect width="12" height="12" x="224" y="140" fill="lightpink"/>
<rect width="12" height="12" x="238" y="140" fill="lightpink"/>
<rect width="12" height="12" x="252" y="140" fill="lightpink"/>
<rect width="12" height="12" x="266" y="140" fill="lightpink"/>
<rect width="12" height="12" x="280" y="140" fill="lightpink"/>
<rect width="12" height="12" x="294" y="140" fill="lightpink"/>
<rect width="12" height="12" x="308" y="140" fill="lightpink"/>
<rect width="12" height="12" x="322" y="140" fill="lightpink"/>
<rect width="12" height="12" x="336" y="140" fill="lightpink"/>
<rect width="12" height="12" x="350" y="140" fill="lightpink"/>
<rect width="12" height="12" x="364" y="140" fill="lightpink"/>
<rect width="12" height="12" x="378" y="140" fill="lightpink"/>
<rect width="12" height="12" x="392" y="140" fill="lightpink"/>
<rect width="12" height="12" x="406" y="140" fill="lightpink"/>
<rect width="12" height="12" x="420" y="140" fill="lightpink"/>
<rect width="12" height="12" x="434" y="140" fill="lightpink"/>
<rect width="12" height="12" x="448" y="140" fill="lightpink"/>
<rect width="12" height="12" x="462" y="140" fill="lightpink"/>
<rect width="12" height="12" x="476" y="140" fill="lightpink"/>
<rect width="12" height="12" x="490" y="140" fill="lightpink"/>
<rect width="12" height="12" x="504" y="140" fill="lightpink"/>
<rect width="12" height="12" x="518" y="140" fill="lightpink"/>
<rect width="12" height="12" x="532" y="140" fill="lightpink"/>
<rect width="12" height="12" x="546" y="140" fill="lightpink"/>
<rect width="12" height="12" x="560" y="140" fill="lightpink"/>
<rect width="12" height="12" x="574" y="140" fill="lightpink"/>
<rect width="12" height="12" x="588" y="140" fill="lightpink"/>
<rect width="12" height="12" x="602" y="140" fill="lightpink"/>
<rect width="12" height="12" x="616" y="140" fill="lightpink"/>
<rect width="12" height="12" x="630" y="140" fill="lightpink"/>
<rect width="12" height="12" x="644" y="140" fill="lightpink"/>
<rect width="12" height="12" x="658" y="140" fill="lightpink"/>
<rect width="12" height="12" x="672" y="140" fill="lightpink"/>
<rect width="12" height="12" x="686" y="140" fill="lightpink"/>
<rect width="12" height="12" x="0" y="154" fill="lightpink"/>
<rect width="12" height="12" x="14" y="154" fill="lightpink"/>
<rect width="12" height="12" x="28" y="154" fill="lightpink"/>
<rect width="12" height="12" x="42" y="154" fill="lightpink"/>
<rect width="12" height="12" x="56" y="154" fill="lightpink"/>
<rect width="12" height="12" x="70" y="154" fill="lightpink"/>
<rect width="12" height="12" x="84" y="154" fill="lightpink"/>
<rect width="12" height="12" x="98" y="154" fill="lightpink"/>
<rect width="12" height="12" x="112" y="154" fill="lightpink"/>
<rect width="12" height="12" x="126" y="154" fill="lightpink"/>
<rect width="12" height="12" x="140" y="154" fill="lightpink"/>
<rect width="12" height="12" x="154" y="154" fill="lightpink"/>
<rect width="12" height="12" x="168" y="154" fill="lightpink"/>
<rect width="12" height="12" x="182" y="154" fill="lightpink"/>
<rect width="12" height="12" x="196" y="154" fill="mistyrose"/>
<rect width="12" height="12" x="210" y="154" fill="mistyrose"/>
<rect width="12" height="12" x="224" y="154" fill="mistyrose"/>
<rect width="12" height="12" x="238" y="154" fill="lightpink"/>
<rect width="12" height="12" x="252" y="154" fill="mistyrose"/>
<rect width="12" height="12" x="266" y="154" fill="mistyrose"/>
<rect width="12" height="12" x="280" y="154" fill="mistyrose"/>
<rect width="12" height="12" x="294" y="154" fill="mistyrose"/>
<rect width="12" height="12" x="308" y="154" fill="mistyrose"/>
<rect width="12" height="12" x="322" y="154" fill="mistyrose"/>
<rect width="12" height="12" x="336" y="154" fill="mistyrose"/>
<rect width="12" height="12" x="350" y="154" fill="mistyrose"/>
<rect width="12" height="12" x="364" y="154" fill="lightpink"/>
<rect width="12" height="12" x="378" y="154" fill="lightpink"/>
<rect width="12" height="12" x="392" y="154" fill="mistyrose"/>
<rect width="12" height="12" x="406" y="154" fill="lightpink"/>
<rect width="12" height="12" x="420" y="154" fill="lightpink"/>
<rect width="12" height="12" x="434" y="154" fill="mistyrose"/>
<rect width="12" height="12" x="448" y="154" fill="mistyrose"/>
<rect width="12" height="12" x="462" y="154" fill="mistyrose"/>
<rect width="12" height="12" x="476" y="154" fill="lightpink"/>
<rect width="12" height="12" x="490" y="154" fill="lightpink"/>
<rect width="12" height="12" x="504" y="154" fill="lightpink"/>
<rect width="12" height="12" x="518" y="154" fill="lightpink"/>
<rect width="12" height="12" x="532" y="154" fill="lightpink"/>
<rect width="12" height="12" x="546" y="154" fill="lightpink"/>
<rect width="12" height="12" x="560" y="154" fill="mistyrose"/>
<rect width="12" height="12" x="574" y="154" fill="mistyrose"/>
<rect width="12" height="12" x="588" y="154" fill="lightpink"/>
<rect width="12" height="12" x="602" y="154" fill="mistyrose"/>
<rect width="12" height="12" x="616" y="154" fill="lightpink"/>
<rect width="12" height="12" x="630" y="154" fill="lightpink"/>
<rect width="12" height="12" x="644" y="154" fill="mistyrose"/>
<rect width="12" height="12" x="658" y="154" fill="lightpink"/>
<rect width="12" height="12" x="672" y="154" fill="mistyrose"/>
<rect width="12" height="12" x="686" y="154" fill="lightpink"/>
<rect width="12" height="12" x="0" y="168" fill="lightpink"/>
<rect width="12" height="12" x="14" y="168" fill="lightpink"/>
<rect width="12" height="12" x="28" y="168" fill="lightpink"/>
<rect width="12" height="12" x="42" y="168" fill="lightpink"/>
<rect width="12" height="12" x="56" y="168" fill="lightpink"/>
<rect width="12" height="12" x="70" y="168" fill="lightpink"/>
<rect width="12" height="12" x="84" y="168" fill="lightpink"/>
<rect width="12" height="12" x="98" y="168" fill="lightpink"/>
<rect width="12" height="12" x="112" y="168" fill="lightpink"/>
<rect width="12" height="12" x="126" y="168" fill="lightpink"/>
<rect width="12" height="12" x="140" y="168" fill="lightpink"/>
<rect width="12" height="12" x="154" y="168" fill="lightpink"/>
<rect width="12" height="12" x="168" y="168" fill="lightpink"/>
<rect width="12" height="12" x="182" y="168" fill="lightpink"/>
<rect width="12" height="12" x="196" y="168" fill="lightpink"/>
<rect width="12" height="12" x="210" y="168" fill="lightpink"/>
<rect width="12" height="12" x="224" y="168" fill="lightpink"/>
<rect width="12" height="12" x="238" y="168" fill="lightpink"/>
<rect width="12" height="12" x="252" y="168" fill="lightpink"/>
<rect width="12" height="12" x="266" y="168" fill="lightpink"/>
<rect width="12" height="12" x="280" y="168" fill="lightpink"/>
<rect width="12" height="12" x="294" y="168" fill="lightpink"/>
<rect width="12" height="12" x="308" y="168" fill="lightpink"/>
<rect width="12" height="12" x="322" y="168" fill="lightpink"/>
<rect width="12" height="12" x="336" y="168" fill="lightpink"/>
<rect width="12" height="12" x="350" y="168" fill="lightpink"/>
<rect width="12" height="12" x="364" y="168" fill="lightpink"/>
<rect width="12" height="12" x="378" y="168" fill="lightpink"/>
<rect width="12" height="12" x="392" y="168" fill="lightpink"/>
<rect width="12" height="12" x="406" y="168" fill="lightpink"/>
<rect width="12" height="12" x="420" y="168" fill="lightpink"/>
<rect width="12" height="12" x="434" y="168" fill="lightpink"/>
<rect width="12" height="12" x="448" y="168" fill="lightpink"/>
<rect width="12" height="12" x="462" y="168" fill="lightpink"/>
<rect width="12" height="12" x="476" y="168" fill="lightpink"/>
<rect width="12" height="12" x="490" y="168" fill="lightpink"/>
<rect width="12" height="12" x="504" y="168" fill="lightpink"/>
<rect width="12" height="12" x="518" y="168" fill="lightpink"/>
<rect width="12" height="12" x="532" y="168" fill="lightpink"/>
<rect width="12" height="12" x="546" y="168" fill="lightpink"/>
<rect width="12" height="12" x="560" y="168" fill="lightpink"/>
<rect width="12" height="12" x="574" y="168" fill="lightpink"/>
<rect width="12" height="12" x="588" y="168" fill="lightpink"/>
<rect width="12" height="12" x="602" y="168" fill="lightpink"/>
<rect width="12" height="12" x="616" y="168" fill="lightpink"/>
<rect width="12" height="12" x="630" y="168" fill="lightpink"/>
<rect width="12" height="12" x="644" y="168" fill="lightpink"/>
<rect width="12" height="12" x="658" y="168" fill="lightpink"/>
<rect width="12" height="12" x="672" y="168" fill="lightpink"/>
<rect width="12" height="12" x="686" y="168" fill="lightpink"/>
<rect width="12" height="12" x="0" y="182" fill="lightpink"/>
<rect width="12" height="12" x="14" y="182" fill="lightpink"/>
<rect width="12" height="12" x="28" y="182" fill="lightpink"/>
<rect width="12" height="12" x="42" y="182" fill="lightpink"/>
<rect width="12" height="12" x="56" y="182" fill="lightpink"/>
<rect width="12" height="12" x="70" y="182" fill="mistyrose"/>
<rect width="12" height="12" x="84" y="182" fill="mistyrose"/>
<rect width="12" height="12" x="98" y="182" fill="mistyrose"/>
<rect width="12" height="12" x="112" y="182" fill="lightpink"/>
<rect width="12" height="12" x="126" y="182" fill="lightpink"/>
<rect width="12" height="12" x="140" y="182" fill="mistyrose"/>
<rect width="12" height="12" x="154" y="182" fill="lightpink"/>
<rect width="12" height="12" x="168" y="182" fill="lightpink"/>
<rect width="12" height="12" x="182" y="182" fill="lightpink"/>
<rect width="12" height="12" x="196" y="182" fill="lightpink"/>
<rect width="12" height="12" x="210" y="182" fill="lightpink"/>
<rect width="12" height="12" x="224" y="182" fill="lightpink"/>
<rect width="12" height="12" x="238" y="182" fill="lightpink"/>
<rect width="12" height="12" x="252" y="182" fill="lightpink"/>
<rect width="12" height="12" x="266" y="182" fill="lightpink"/>
<rect width="12" height="12" x="280" y="182" fill="lightpink"/>
<rect width="12" height="12" x="294" y="182" fill="lightpink"/>
<rect width="12" height="12" x="308" y="182" fill="lightpink"/>
<rect width="12" height="12" x="322" y="182" fill="lightpink"/>
<rect width="12" height="12" x="336" y="182" fill="mistyrose"/>
<rect width="12" height="12" x="350" y="182" fill="mistyrose"/>
<rect width="12" height="12" x="364" y="182" fill="mistyrose"/>
<rect width="12" height="12" x="378" y="182" fill="mistyrose"/>
<rect width="12" height="12" x="392" y="182" fill="mistyrose"/>
<rect width="12" height="12" x="406" y="182" fill="mistyrose"/>
<rect width="12" height="12" x="420" y="182" fill="mistyrose"/>
<rect width="12" height="12" x="434" y="182" fill="mistyrose"/>
<rect width="12" height="12" x="448" y="182" fill="mistyrose"/>
<rect width="12" height="12" x="462" y="182" fill="mistyrose"/>
<rect width="12" height="12" x="476" y="182" fill="mistyrose"/>
<rect width="12" height="12" x="490" y="182" fill="mistyrose"/>
<rect width="12" height="12" x="504" y="182" fill="mistyrose"/>
<rect width="12" height="12" x="518" y="182" fill="mistyrose"/>
<rect width="12" height="12" x="532" y="182" fill="mistyrose"/>
<rect width="12" height="12" x="546" y="182" fill="mistyrose"/>
<rect width="12" height="12" x="560" y="182" fill="mistyrose"/>
<rect width="12" height="12" x="574" y="182" fill="mistyrose"/>
<rect width="12" height="12" x="588" y="182" fill="mistyrose"/>
<rect width="12" height="12" x="602" y="182" fill="mistyrose"/>
<rect width="12" height="12" x="616" y="182" fill="mistyrose"/>
<rect width="12" height="12" x="630" y="182" fill="mistyrose"/>
<rect width="12" height="12" x="644" y="182" fill="mistyrose"/>
<rect width="12" height="12" x="658" y="182" fill="mistyrose"/>
<rect width="12" height="12" x="672" y="182" fill="mistyrose"/>
<rect width="12" height="12" x="686" y="182" fill="mistyrose"/>
<rect width="12" height="12" x="0" y="196" fill="lightpink"/>
<rect width="12" height="12" x="0" y="224.5" fill="forestgreen"/><text alignment-baseline="central" x="17" y="230.5" style="font-family: sans-serif; font-size: 15px">Functions decompiled (count): 6.99%</text>
<rect width="12" height="12" x="0" y="242.5" fill="forestgreen"/><text alignment-baseline="central" x="17" y="248.5" style="font-family: sans-serif; font-size: 15px">Functions decompiled (bytesize): 3.51%</text>
<rect width="12" height="12" x="0" y="260.5" fill="lightpink"/><text alignment-baseline="central" x="17" y="266.5" style="font-family: sans-serif; font-size: 15px">Functions not decompiled, but with known names (count): 73.75%</text>
<rect width="12" height="12" x="0" y="278.5" fill="lightpink"/><text alignment-baseline="central" x="17" y="284.5" style="font-family: sans-serif; font-size: 15px">Functions not decompiled, but with known names (bytesize): 76.46%</text>
<rect width="12" height="12" x="0" y="296.5" fill="mistyrose"/><text alignment-baseline="central" x="17" y="302.5" style="font-family: sans-serif; font-size: 15px">Functions not decompiled, with unknown names (count): 19.26%</text>
<rect width="12" height="12" x="0" y="314.5" fill="mistyrose"/><text alignment-baseline="central" x="17" y="320.5" style="font-family: sans-serif; font-size: 15px">Functions not decompiled, with unknown names (bytesize): 20.03%</text>
</svg>
