<svg version="1.1" width="602" height="202" xmlns="http://www.w3.org/2000/svg">
<rect width="10" height="10" x="0" y="0" fill="pink"/>
<rect width="10" height="10" x="12" y="0" fill="pink"/>
<rect width="10" height="10" x="24" y="0" fill="pink"/>
<rect width="10" height="10" x="36" y="0" fill="pink"/>
<rect width="10" height="10" x="48" y="0" fill="pink"/>
<rect width="10" height="10" x="60" y="0" fill="pink"/>
<rect width="10" height="10" x="72" y="0" fill="pink"/>
<rect width="10" height="10" x="84" y="0" fill="pink"/>
<rect width="10" height="10" x="96" y="0" fill="pink"/>
<rect width="10" height="10" x="108" y="0" fill="pink"/>
<rect width="10" height="10" x="120" y="0" fill="pink"/>
<rect width="10" height="10" x="132" y="0" fill="pink"/>
<rect width="10" height="10" x="144" y="0" fill="pink"/>
<rect width="10" height="10" x="156" y="0" fill="pink"/>
<rect width="10" height="10" x="168" y="0" fill="pink"/>
<rect width="10" height="10" x="180" y="0" fill="pink"/>
<rect width="10" height="10" x="192" y="0" fill="pink"/>
<rect width="10" height="10" x="204" y="0" fill="pink"/>
<rect width="10" height="10" x="216" y="0" fill="pink"/>
<rect width="10" height="10" x="228" y="0" fill="pink"/>
<rect width="10" height="10" x="240" y="0" fill="pink"/>
<rect width="10" height="10" x="252" y="0" fill="pink"/>
<rect width="10" height="10" x="264" y="0" fill="pink"/>
<rect width="10" height="10" x="276" y="0" fill="pink"/>
<rect width="10" height="10" x="288" y="0" fill="pink"/>
<rect width="10" height="10" x="300" y="0" fill="pink"/>
<rect width="10" height="10" x="312" y="0" fill="pink"/>
<rect width="10" height="10" x="324" y="0" fill="pink"/>
<rect width="10" height="10" x="336" y="0" fill="pink"/>
<rect width="10" height="10" x="348" y="0" fill="pink"/>
<rect width="10" height="10" x="360" y="0" fill="pink"/>
<rect width="10" height="10" x="372" y="0" fill="pink"/>
<rect width="10" height="10" x="384" y="0" fill="pink"/>
<rect width="10" height="10" x="396" y="0" fill="pink"/>
<rect width="10" height="10" x="408" y="0" fill="pink"/>
<rect width="10" height="10" x="420" y="0" fill="pink"/>
<rect width="10" height="10" x="432" y="0" fill="pink"/>
<rect width="10" height="10" x="444" y="0" fill="pink"/>
<rect width="10" height="10" x="456" y="0" fill="pink"/>
<rect width="10" height="10" x="468" y="0" fill="pink"/>
<rect width="10" height="10" x="480" y="0" fill="pink"/>
<rect width="10" height="10" x="492" y="0" fill="pink"/>
<rect width="10" height="10" x="504" y="0" fill="pink"/>
<rect width="10" height="10" x="516" y="0" fill="pink"/>
<rect width="10" height="10" x="528" y="0" fill="pink"/>
<rect width="10" height="10" x="540" y="0" fill="pink"/>
<rect width="10" height="10" x="552" y="0" fill="pink"/>
<rect width="10" height="10" x="564" y="0" fill="pink"/>
<rect width="10" height="10" x="576" y="0" fill="pink"/>
<rect width="10" height="10" x="588" y="0" fill="pink"/>
<rect width="10" height="10" x="0" y="12" fill="pink"/>
<rect width="10" height="10" x="12" y="12" fill="pink"/>
<rect width="10" height="10" x="24" y="12" fill="pink"/>
<rect width="10" height="10" x="36" y="12" fill="pink"/>
<rect width="10" height="10" x="48" y="12" fill="pink"/>
<rect width="10" height="10" x="60" y="12" fill="pink"/>
<rect width="10" height="10" x="72" y="12" fill="pink"/>
<rect width="10" height="10" x="84" y="12" fill="pink"/>
<rect width="10" height="10" x="96" y="12" fill="pink"/>
<rect width="10" height="10" x="108" y="12" fill="pink"/>
<rect width="10" height="10" x="120" y="12" fill="pink"/>
<rect width="10" height="10" x="132" y="12" fill="pink"/>
<rect width="10" height="10" x="144" y="12" fill="pink"/>
<rect width="10" height="10" x="156" y="12" fill="pink"/>
<rect width="10" height="10" x="168" y="12" fill="pink"/>
<rect width="10" height="10" x="180" y="12" fill="pink"/>
<rect width="10" height="10" x="192" y="12" fill="pink"/>
<rect width="10" height="10" x="204" y="12" fill="pink"/>
<rect width="10" height="10" x="216" y="12" fill="pink"/>
<rect width="10" height="10" x="228" y="12" fill="pink"/>
<rect width="10" height="10" x="240" y="12" fill="pink"/>
<rect width="10" height="10" x="252" y="12" fill="pink"/>
<rect width="10" height="10" x="264" y="12" fill="pink"/>
<rect width="10" height="10" x="276" y="12" fill="pink"/>
<rect width="10" height="10" x="288" y="12" fill="pink"/>
<rect width="10" height="10" x="300" y="12" fill="pink"/>
<rect width="10" height="10" x="312" y="12" fill="pink"/>
<rect width="10" height="10" x="324" y="12" fill="pink"/>
<rect width="10" height="10" x="336" y="12" fill="pink"/>
<rect width="10" height="10" x="348" y="12" fill="pink"/>
<rect width="10" height="10" x="360" y="12" fill="pink"/>
<rect width="10" height="10" x="372" y="12" fill="pink"/>
<rect width="10" height="10" x="384" y="12" fill="pink"/>
<rect width="10" height="10" x="396" y="12" fill="pink"/>
<rect width="10" height="10" x="408" y="12" fill="pink"/>
<rect width="10" height="10" x="420" y="12" fill="pink"/>
<rect width="10" height="10" x="432" y="12" fill="pink"/>
<rect width="10" height="10" x="444" y="12" fill="pink"/>
<rect width="10" height="10" x="456" y="12" fill="pink"/>
<rect width="10" height="10" x="468" y="12" fill="pink"/>
<rect width="10" height="10" x="480" y="12" fill="pink"/>
<rect width="10" height="10" x="492" y="12" fill="pink"/>
<rect width="10" height="10" x="504" y="12" fill="pink"/>
<rect width="10" height="10" x="516" y="12" fill="pink"/>
<rect width="10" height="10" x="528" y="12" fill="pink"/>
<rect width="10" height="10" x="540" y="12" fill="pink"/>
<rect width="10" height="10" x="552" y="12" fill="pink"/>
<rect width="10" height="10" x="564" y="12" fill="pink"/>
<rect width="10" height="10" x="576" y="12" fill="pink"/>
<rect width="10" height="10" x="588" y="12" fill="pink"/>
<rect width="10" height="10" x="0" y="24" fill="pink"/>
<rect width="10" height="10" x="12" y="24" fill="pink"/>
<rect width="10" height="10" x="24" y="24" fill="pink"/>
<rect width="10" height="10" x="36" y="24" fill="pink"/>
<rect width="10" height="10" x="48" y="24" fill="pink"/>
<rect width="10" height="10" x="60" y="24" fill="pink"/>
<rect width="10" height="10" x="72" y="24" fill="pink"/>
<rect width="10" height="10" x="84" y="24" fill="pink"/>
<rect width="10" height="10" x="96" y="24" fill="pink"/>
<rect width="10" height="10" x="108" y="24" fill="pink"/>
<rect width="10" height="10" x="120" y="24" fill="pink"/>
<rect width="10" height="10" x="132" y="24" fill="pink"/>
<rect width="10" height="10" x="144" y="24" fill="pink"/>
<rect width="10" height="10" x="156" y="24" fill="pink"/>
<rect width="10" height="10" x="168" y="24" fill="pink"/>
<rect width="10" height="10" x="180" y="24" fill="pink"/>
<rect width="10" height="10" x="192" y="24" fill="pink"/>
<rect width="10" height="10" x="204" y="24" fill="pink"/>
<rect width="10" height="10" x="216" y="24" fill="pink"/>
<rect width="10" height="10" x="228" y="24" fill="pink"/>
<rect width="10" height="10" x="240" y="24" fill="pink"/>
<rect width="10" height="10" x="252" y="24" fill="pink"/>
<rect width="10" height="10" x="264" y="24" fill="pink"/>
<rect width="10" height="10" x="276" y="24" fill="pink"/>
<rect width="10" height="10" x="288" y="24" fill="pink"/>
<rect width="10" height="10" x="300" y="24" fill="pink"/>
<rect width="10" height="10" x="312" y="24" fill="pink"/>
<rect width="10" height="10" x="324" y="24" fill="pink"/>
<rect width="10" height="10" x="336" y="24" fill="pink"/>
<rect width="10" height="10" x="348" y="24" fill="pink"/>
<rect width="10" height="10" x="360" y="24" fill="pink"/>
<rect width="10" height="10" x="372" y="24" fill="pink"/>
<rect width="10" height="10" x="384" y="24" fill="pink"/>
<rect width="10" height="10" x="396" y="24" fill="pink"/>
<rect width="10" height="10" x="408" y="24" fill="pink"/>
<rect width="10" height="10" x="420" y="24" fill="pink"/>
<rect width="10" height="10" x="432" y="24" fill="pink"/>
<rect width="10" height="10" x="444" y="24" fill="pink"/>
<rect width="10" height="10" x="456" y="24" fill="pink"/>
<rect width="10" height="10" x="468" y="24" fill="pink"/>
<rect width="10" height="10" x="480" y="24" fill="pink"/>
<rect width="10" height="10" x="492" y="24" fill="pink"/>
<rect width="10" height="10" x="504" y="24" fill="pink"/>
<rect width="10" height="10" x="516" y="24" fill="pink"/>
<rect width="10" height="10" x="528" y="24" fill="pink"/>
<rect width="10" height="10" x="540" y="24" fill="pink"/>
<rect width="10" height="10" x="552" y="24" fill="pink"/>
<rect width="10" height="10" x="564" y="24" fill="pink"/>
<rect width="10" height="10" x="576" y="24" fill="pink"/>
<rect width="10" height="10" x="588" y="24" fill="pink"/>
<rect width="10" height="10" x="0" y="36" fill="pink"/>
<rect width="10" height="10" x="12" y="36" fill="pink"/>
<rect width="10" height="10" x="24" y="36" fill="pink"/>
<rect width="10" height="10" x="36" y="36" fill="pink"/>
<rect width="10" height="10" x="48" y="36" fill="pink"/>
<rect width="10" height="10" x="60" y="36" fill="pink"/>
<rect width="10" height="10" x="72" y="36" fill="pink"/>
<rect width="10" height="10" x="84" y="36" fill="pink"/>
<rect width="10" height="10" x="96" y="36" fill="pink"/>
<rect width="10" height="10" x="108" y="36" fill="pink"/>
<rect width="10" height="10" x="120" y="36" fill="pink"/>
<rect width="10" height="10" x="132" y="36" fill="pink"/>
<rect width="10" height="10" x="144" y="36" fill="pink"/>
<rect width="10" height="10" x="156" y="36" fill="pink"/>
<rect width="10" height="10" x="168" y="36" fill="pink"/>
<rect width="10" height="10" x="180" y="36" fill="pink"/>
<rect width="10" height="10" x="192" y="36" fill="pink"/>
<rect width="10" height="10" x="204" y="36" fill="pink"/>
<rect width="10" height="10" x="216" y="36" fill="pink"/>
<rect width="10" height="10" x="228" y="36" fill="pink"/>
<rect width="10" height="10" x="240" y="36" fill="pink"/>
<rect width="10" height="10" x="252" y="36" fill="pink"/>
<rect width="10" height="10" x="264" y="36" fill="pink"/>
<rect width="10" height="10" x="276" y="36" fill="pink"/>
<rect width="10" height="10" x="288" y="36" fill="pink"/>
<rect width="10" height="10" x="300" y="36" fill="pink"/>
<rect width="10" height="10" x="312" y="36" fill="pink"/>
<rect width="10" height="10" x="324" y="36" fill="pink"/>
<rect width="10" height="10" x="336" y="36" fill="pink"/>
<rect width="10" height="10" x="348" y="36" fill="pink"/>
<rect width="10" height="10" x="360" y="36" fill="pink"/>
<rect width="10" height="10" x="372" y="36" fill="pink"/>
<rect width="10" height="10" x="384" y="36" fill="pink"/>
<rect width="10" height="10" x="396" y="36" fill="pink"/>
<rect width="10" height="10" x="408" y="36" fill="pink"/>
<rect width="10" height="10" x="420" y="36" fill="pink"/>
<rect width="10" height="10" x="432" y="36" fill="pink"/>
<rect width="10" height="10" x="444" y="36" fill="pink"/>
<rect width="10" height="10" x="456" y="36" fill="pink"/>
<rect width="10" height="10" x="468" y="36" fill="pink"/>
<rect width="10" height="10" x="480" y="36" fill="pink"/>
<rect width="10" height="10" x="492" y="36" fill="pink"/>
<rect width="10" height="10" x="504" y="36" fill="pink"/>
<rect width="10" height="10" x="516" y="36" fill="pink"/>
<rect width="10" height="10" x="528" y="36" fill="pink"/>
<rect width="10" height="10" x="540" y="36" fill="pink"/>
<rect width="10" height="10" x="552" y="36" fill="pink"/>
<rect width="10" height="10" x="564" y="36" fill="pink"/>
<rect width="10" height="10" x="576" y="36" fill="pink"/>
<rect width="10" height="10" x="588" y="36" fill="pink"/>
<rect width="10" height="10" x="0" y="48" fill="pink"/>
<rect width="10" height="10" x="12" y="48" fill="pink"/>
<rect width="10" height="10" x="24" y="48" fill="pink"/>
<rect width="10" height="10" x="36" y="48" fill="pink"/>
<rect width="10" height="10" x="48" y="48" fill="pink"/>
<rect width="10" height="10" x="60" y="48" fill="pink"/>
<rect width="10" height="10" x="72" y="48" fill="pink"/>
<rect width="10" height="10" x="84" y="48" fill="pink"/>
<rect width="10" height="10" x="96" y="48" fill="pink"/>
<rect width="10" height="10" x="108" y="48" fill="pink"/>
<rect width="10" height="10" x="120" y="48" fill="pink"/>
<rect width="10" height="10" x="132" y="48" fill="pink"/>
<rect width="10" height="10" x="144" y="48" fill="pink"/>
<rect width="10" height="10" x="156" y="48" fill="pink"/>
<rect width="10" height="10" x="168" y="48" fill="pink"/>
<rect width="10" height="10" x="180" y="48" fill="pink"/>
<rect width="10" height="10" x="192" y="48" fill="pink"/>
<rect width="10" height="10" x="204" y="48" fill="pink"/>
<rect width="10" height="10" x="216" y="48" fill="pink"/>
<rect width="10" height="10" x="228" y="48" fill="pink"/>
<rect width="10" height="10" x="240" y="48" fill="pink"/>
<rect width="10" height="10" x="252" y="48" fill="pink"/>
<rect width="10" height="10" x="264" y="48" fill="pink"/>
<rect width="10" height="10" x="276" y="48" fill="pink"/>
<rect width="10" height="10" x="288" y="48" fill="pink"/>
<rect width="10" height="10" x="300" y="48" fill="pink"/>
<rect width="10" height="10" x="312" y="48" fill="pink"/>
<rect width="10" height="10" x="324" y="48" fill="pink"/>
<rect width="10" height="10" x="336" y="48" fill="pink"/>
<rect width="10" height="10" x="348" y="48" fill="pink"/>
<rect width="10" height="10" x="360" y="48" fill="pink"/>
<rect width="10" height="10" x="372" y="48" fill="pink"/>
<rect width="10" height="10" x="384" y="48" fill="green"/>
<rect width="10" height="10" x="396" y="48" fill="pink"/>
<rect width="10" height="10" x="408" y="48" fill="green"/>
<rect width="10" height="10" x="420" y="48" fill="pink"/>
<rect width="10" height="10" x="432" y="48" fill="pink"/>
<rect width="10" height="10" x="444" y="48" fill="green"/>
<rect width="10" height="10" x="456" y="48" fill="pink"/>
<rect width="10" height="10" x="468" y="48" fill="green"/>
<rect width="10" height="10" x="480" y="48" fill="green"/>
<rect width="10" height="10" x="492" y="48" fill="pink"/>
<rect width="10" height="10" x="504" y="48" fill="pink"/>
<rect width="10" height="10" x="516" y="48" fill="pink"/>
<rect width="10" height="10" x="528" y="48" fill="pink"/>
<rect width="10" height="10" x="540" y="48" fill="pink"/>
<rect width="10" height="10" x="552" y="48" fill="pink"/>
<rect width="10" height="10" x="564" y="48" fill="pink"/>
<rect width="10" height="10" x="576" y="48" fill="pink"/>
<rect width="10" height="10" x="588" y="48" fill="pink"/>
<rect width="10" height="10" x="0" y="60" fill="pink"/>
<rect width="10" height="10" x="12" y="60" fill="pink"/>
<rect width="10" height="10" x="24" y="60" fill="pink"/>
<rect width="10" height="10" x="36" y="60" fill="pink"/>
<rect width="10" height="10" x="48" y="60" fill="pink"/>
<rect width="10" height="10" x="60" y="60" fill="pink"/>
<rect width="10" height="10" x="72" y="60" fill="green"/>
<rect width="10" height="10" x="84" y="60" fill="green"/>
<rect width="10" height="10" x="96" y="60" fill="green"/>
<rect width="10" height="10" x="108" y="60" fill="green"/>
<rect width="10" height="10" x="120" y="60" fill="green"/>
<rect width="10" height="10" x="132" y="60" fill="pink"/>
<rect width="10" height="10" x="144" y="60" fill="pink"/>
<rect width="10" height="10" x="156" y="60" fill="pink"/>
<rect width="10" height="10" x="168" y="60" fill="pink"/>
<rect width="10" height="10" x="180" y="60" fill="pink"/>
<rect width="10" height="10" x="192" y="60" fill="green"/>
<rect width="10" height="10" x="204" y="60" fill="pink"/>
<rect width="10" height="10" x="216" y="60" fill="pink"/>
<rect width="10" height="10" x="228" y="60" fill="green"/>
<rect width="10" height="10" x="240" y="60" fill="pink"/>
<rect width="10" height="10" x="252" y="60" fill="pink"/>
<rect width="10" height="10" x="264" y="60" fill="pink"/>
<rect width="10" height="10" x="276" y="60" fill="pink"/>
<rect width="10" height="10" x="288" y="60" fill="green"/>
<rect width="10" height="10" x="300" y="60" fill="pink"/>
<rect width="10" height="10" x="312" y="60" fill="green"/>
<rect width="10" height="10" x="324" y="60" fill="pink"/>
<rect width="10" height="10" x="336" y="60" fill="pink"/>
<rect width="10" height="10" x="348" y="60" fill="pink"/>
<rect width="10" height="10" x="360" y="60" fill="pink"/>
<rect width="10" height="10" x="372" y="60" fill="pink"/>
<rect width="10" height="10" x="384" y="60" fill="pink"/>
<rect width="10" height="10" x="396" y="60" fill="pink"/>
<rect width="10" height="10" x="408" y="60" fill="pink"/>
<rect width="10" height="10" x="420" y="60" fill="pink"/>
<rect width="10" height="10" x="432" y="60" fill="pink"/>
<rect width="10" height="10" x="444" y="60" fill="pink"/>
<rect width="10" height="10" x="456" y="60" fill="pink"/>
<rect width="10" height="10" x="468" y="60" fill="pink"/>
<rect width="10" height="10" x="480" y="60" fill="pink"/>
<rect width="10" height="10" x="492" y="60" fill="pink"/>
<rect width="10" height="10" x="504" y="60" fill="pink"/>
<rect width="10" height="10" x="516" y="60" fill="pink"/>
<rect width="10" height="10" x="528" y="60" fill="pink"/>
<rect width="10" height="10" x="540" y="60" fill="pink"/>
<rect width="10" height="10" x="552" y="60" fill="pink"/>
<rect width="10" height="10" x="564" y="60" fill="pink"/>
<rect width="10" height="10" x="576" y="60" fill="pink"/>
<rect width="10" height="10" x="588" y="60" fill="pink"/>
<rect width="10" height="10" x="0" y="72" fill="pink"/>
<rect width="10" height="10" x="12" y="72" fill="pink"/>
<rect width="10" height="10" x="24" y="72" fill="pink"/>
<rect width="10" height="10" x="36" y="72" fill="pink"/>
<rect width="10" height="10" x="48" y="72" fill="pink"/>
<rect width="10" height="10" x="60" y="72" fill="pink"/>
<rect width="10" height="10" x="72" y="72" fill="pink"/>
<rect width="10" height="10" x="84" y="72" fill="pink"/>
<rect width="10" height="10" x="96" y="72" fill="pink"/>
<rect width="10" height="10" x="108" y="72" fill="pink"/>
<rect width="10" height="10" x="120" y="72" fill="pink"/>
<rect width="10" height="10" x="132" y="72" fill="pink"/>
<rect width="10" height="10" x="144" y="72" fill="pink"/>
<rect width="10" height="10" x="156" y="72" fill="pink"/>
<rect width="10" height="10" x="168" y="72" fill="pink"/>
<rect width="10" height="10" x="180" y="72" fill="pink"/>
<rect width="10" height="10" x="192" y="72" fill="pink"/>
<rect width="10" height="10" x="204" y="72" fill="pink"/>
<rect width="10" height="10" x="216" y="72" fill="green"/>
<rect width="10" height="10" x="228" y="72" fill="pink"/>
<rect width="10" height="10" x="240" y="72" fill="pink"/>
<rect width="10" height="10" x="252" y="72" fill="pink"/>
<rect width="10" height="10" x="264" y="72" fill="pink"/>
<rect width="10" height="10" x="276" y="72" fill="pink"/>
<rect width="10" height="10" x="288" y="72" fill="pink"/>
<rect width="10" height="10" x="300" y="72" fill="pink"/>
<rect width="10" height="10" x="312" y="72" fill="pink"/>
<rect width="10" height="10" x="324" y="72" fill="pink"/>
<rect width="10" height="10" x="336" y="72" fill="pink"/>
<rect width="10" height="10" x="348" y="72" fill="pink"/>
<rect width="10" height="10" x="360" y="72" fill="pink"/>
<rect width="10" height="10" x="372" y="72" fill="pink"/>
<rect width="10" height="10" x="384" y="72" fill="pink"/>
<rect width="10" height="10" x="396" y="72" fill="pink"/>
<rect width="10" height="10" x="408" y="72" fill="pink"/>
<rect width="10" height="10" x="420" y="72" fill="pink"/>
<rect width="10" height="10" x="432" y="72" fill="pink"/>
<rect width="10" height="10" x="444" y="72" fill="pink"/>
<rect width="10" height="10" x="456" y="72" fill="pink"/>
<rect width="10" height="10" x="468" y="72" fill="pink"/>
<rect width="10" height="10" x="480" y="72" fill="pink"/>
<rect width="10" height="10" x="492" y="72" fill="pink"/>
<rect width="10" height="10" x="504" y="72" fill="pink"/>
<rect width="10" height="10" x="516" y="72" fill="pink"/>
<rect width="10" height="10" x="528" y="72" fill="pink"/>
<rect width="10" height="10" x="540" y="72" fill="pink"/>
<rect width="10" height="10" x="552" y="72" fill="pink"/>
<rect width="10" height="10" x="564" y="72" fill="pink"/>
<rect width="10" height="10" x="576" y="72" fill="pink"/>
<rect width="10" height="10" x="588" y="72" fill="pink"/>
<rect width="10" height="10" x="0" y="84" fill="pink"/>
<rect width="10" height="10" x="12" y="84" fill="pink"/>
<rect width="10" height="10" x="24" y="84" fill="pink"/>
<rect width="10" height="10" x="36" y="84" fill="pink"/>
<rect width="10" height="10" x="48" y="84" fill="pink"/>
<rect width="10" height="10" x="60" y="84" fill="pink"/>
<rect width="10" height="10" x="72" y="84" fill="pink"/>
<rect width="10" height="10" x="84" y="84" fill="pink"/>
<rect width="10" height="10" x="96" y="84" fill="pink"/>
<rect width="10" height="10" x="108" y="84" fill="pink"/>
<rect width="10" height="10" x="120" y="84" fill="pink"/>
<rect width="10" height="10" x="132" y="84" fill="pink"/>
<rect width="10" height="10" x="144" y="84" fill="pink"/>
<rect width="10" height="10" x="156" y="84" fill="pink"/>
<rect width="10" height="10" x="168" y="84" fill="pink"/>
<rect width="10" height="10" x="180" y="84" fill="pink"/>
<rect width="10" height="10" x="192" y="84" fill="pink"/>
<rect width="10" height="10" x="204" y="84" fill="pink"/>
<rect width="10" height="10" x="216" y="84" fill="pink"/>
<rect width="10" height="10" x="228" y="84" fill="pink"/>
<rect width="10" height="10" x="240" y="84" fill="pink"/>
<rect width="10" height="10" x="252" y="84" fill="pink"/>
<rect width="10" height="10" x="264" y="84" fill="pink"/>
<rect width="10" height="10" x="276" y="84" fill="pink"/>
<rect width="10" height="10" x="288" y="84" fill="pink"/>
<rect width="10" height="10" x="300" y="84" fill="pink"/>
<rect width="10" height="10" x="312" y="84" fill="pink"/>
<rect width="10" height="10" x="324" y="84" fill="pink"/>
<rect width="10" height="10" x="336" y="84" fill="pink"/>
<rect width="10" height="10" x="348" y="84" fill="pink"/>
<rect width="10" height="10" x="360" y="84" fill="pink"/>
<rect width="10" height="10" x="372" y="84" fill="pink"/>
<rect width="10" height="10" x="384" y="84" fill="pink"/>
<rect width="10" height="10" x="396" y="84" fill="pink"/>
<rect width="10" height="10" x="408" y="84" fill="pink"/>
<rect width="10" height="10" x="420" y="84" fill="pink"/>
<rect width="10" height="10" x="432" y="84" fill="pink"/>
<rect width="10" height="10" x="444" y="84" fill="pink"/>
<rect width="10" height="10" x="456" y="84" fill="pink"/>
<rect width="10" height="10" x="468" y="84" fill="pink"/>
<rect width="10" height="10" x="480" y="84" fill="pink"/>
<rect width="10" height="10" x="492" y="84" fill="pink"/>
<rect width="10" height="10" x="504" y="84" fill="pink"/>
<rect width="10" height="10" x="516" y="84" fill="pink"/>
<rect width="10" height="10" x="528" y="84" fill="pink"/>
<rect width="10" height="10" x="540" y="84" fill="pink"/>
<rect width="10" height="10" x="552" y="84" fill="pink"/>
<rect width="10" height="10" x="564" y="84" fill="pink"/>
<rect width="10" height="10" x="576" y="84" fill="pink"/>
<rect width="10" height="10" x="588" y="84" fill="pink"/>
<rect width="10" height="10" x="0" y="96" fill="pink"/>
<rect width="10" height="10" x="12" y="96" fill="pink"/>
<rect width="10" height="10" x="24" y="96" fill="pink"/>
<rect width="10" height="10" x="36" y="96" fill="pink"/>
<rect width="10" height="10" x="48" y="96" fill="pink"/>
<rect width="10" height="10" x="60" y="96" fill="pink"/>
<rect width="10" height="10" x="72" y="96" fill="pink"/>
<rect width="10" height="10" x="84" y="96" fill="pink"/>
<rect width="10" height="10" x="96" y="96" fill="pink"/>
<rect width="10" height="10" x="108" y="96" fill="pink"/>
<rect width="10" height="10" x="120" y="96" fill="pink"/>
<rect width="10" height="10" x="132" y="96" fill="pink"/>
<rect width="10" height="10" x="144" y="96" fill="pink"/>
<rect width="10" height="10" x="156" y="96" fill="pink"/>
<rect width="10" height="10" x="168" y="96" fill="pink"/>
<rect width="10" height="10" x="180" y="96" fill="pink"/>
<rect width="10" height="10" x="192" y="96" fill="pink"/>
<rect width="10" height="10" x="204" y="96" fill="green"/>
<rect width="10" height="10" x="216" y="96" fill="pink"/>
<rect width="10" height="10" x="228" y="96" fill="pink"/>
<rect width="10" height="10" x="240" y="96" fill="pink"/>
<rect width="10" height="10" x="252" y="96" fill="pink"/>
<rect width="10" height="10" x="264" y="96" fill="pink"/>
<rect width="10" height="10" x="276" y="96" fill="pink"/>
<rect width="10" height="10" x="288" y="96" fill="pink"/>
<rect width="10" height="10" x="300" y="96" fill="pink"/>
<rect width="10" height="10" x="312" y="96" fill="pink"/>
<rect width="10" height="10" x="324" y="96" fill="pink"/>
<rect width="10" height="10" x="336" y="96" fill="pink"/>
<rect width="10" height="10" x="348" y="96" fill="pink"/>
<rect width="10" height="10" x="360" y="96" fill="pink"/>
<rect width="10" height="10" x="372" y="96" fill="pink"/>
<rect width="10" height="10" x="384" y="96" fill="pink"/>
<rect width="10" height="10" x="396" y="96" fill="pink"/>
<rect width="10" height="10" x="408" y="96" fill="pink"/>
<rect width="10" height="10" x="420" y="96" fill="pink"/>
<rect width="10" height="10" x="432" y="96" fill="pink"/>
<rect width="10" height="10" x="444" y="96" fill="pink"/>
<rect width="10" height="10" x="456" y="96" fill="pink"/>
<rect width="10" height="10" x="468" y="96" fill="pink"/>
<rect width="10" height="10" x="480" y="96" fill="pink"/>
<rect width="10" height="10" x="492" y="96" fill="pink"/>
<rect width="10" height="10" x="504" y="96" fill="pink"/>
<rect width="10" height="10" x="516" y="96" fill="pink"/>
<rect width="10" height="10" x="528" y="96" fill="pink"/>
<rect width="10" height="10" x="540" y="96" fill="pink"/>
<rect width="10" height="10" x="552" y="96" fill="pink"/>
<rect width="10" height="10" x="564" y="96" fill="pink"/>
<rect width="10" height="10" x="576" y="96" fill="pink"/>
<rect width="10" height="10" x="588" y="96" fill="pink"/>
<rect width="10" height="10" x="0" y="108" fill="pink"/>
<rect width="10" height="10" x="12" y="108" fill="pink"/>
<rect width="10" height="10" x="24" y="108" fill="green"/>
<rect width="10" height="10" x="36" y="108" fill="green"/>
<rect width="10" height="10" x="48" y="108" fill="pink"/>
<rect width="10" height="10" x="60" y="108" fill="pink"/>
<rect width="10" height="10" x="72" y="108" fill="pink"/>
<rect width="10" height="10" x="84" y="108" fill="pink"/>
<rect width="10" height="10" x="96" y="108" fill="pink"/>
<rect width="10" height="10" x="108" y="108" fill="pink"/>
<rect width="10" height="10" x="120" y="108" fill="pink"/>
<rect width="10" height="10" x="132" y="108" fill="pink"/>
<rect width="10" height="10" x="144" y="108" fill="pink"/>
<rect width="10" height="10" x="156" y="108" fill="pink"/>
<rect width="10" height="10" x="168" y="108" fill="pink"/>
<rect width="10" height="10" x="180" y="108" fill="pink"/>
<rect width="10" height="10" x="192" y="108" fill="pink"/>
<rect width="10" height="10" x="204" y="108" fill="pink"/>
<rect width="10" height="10" x="216" y="108" fill="pink"/>
<rect width="10" height="10" x="228" y="108" fill="pink"/>
<rect width="10" height="10" x="240" y="108" fill="pink"/>
<rect width="10" height="10" x="252" y="108" fill="pink"/>
<rect width="10" height="10" x="264" y="108" fill="pink"/>
<rect width="10" height="10" x="276" y="108" fill="pink"/>
<rect width="10" height="10" x="288" y="108" fill="pink"/>
<rect width="10" height="10" x="300" y="108" fill="pink"/>
<rect width="10" height="10" x="312" y="108" fill="pink"/>
<rect width="10" height="10" x="324" y="108" fill="pink"/>
<rect width="10" height="10" x="336" y="108" fill="pink"/>
<rect width="10" height="10" x="348" y="108" fill="pink"/>
<rect width="10" height="10" x="360" y="108" fill="pink"/>
<rect width="10" height="10" x="372" y="108" fill="pink"/>
<rect width="10" height="10" x="384" y="108" fill="pink"/>
<rect width="10" height="10" x="396" y="108" fill="pink"/>
<rect width="10" height="10" x="408" y="108" fill="pink"/>
<rect width="10" height="10" x="420" y="108" fill="pink"/>
<rect width="10" height="10" x="432" y="108" fill="pink"/>
<rect width="10" height="10" x="444" y="108" fill="pink"/>
<rect width="10" height="10" x="456" y="108" fill="pink"/>
<rect width="10" height="10" x="468" y="108" fill="pink"/>
<rect width="10" height="10" x="480" y="108" fill="pink"/>
<rect width="10" height="10" x="492" y="108" fill="pink"/>
<rect width="10" height="10" x="504" y="108" fill="pink"/>
<rect width="10" height="10" x="516" y="108" fill="pink"/>
<rect width="10" height="10" x="528" y="108" fill="pink"/>
<rect width="10" height="10" x="540" y="108" fill="pink"/>
<rect width="10" height="10" x="552" y="108" fill="pink"/>
<rect width="10" height="10" x="564" y="108" fill="pink"/>
<rect width="10" height="10" x="576" y="108" fill="pink"/>
<rect width="10" height="10" x="588" y="108" fill="pink"/>
<rect width="10" height="10" x="0" y="120" fill="pink"/>
<rect width="10" height="10" x="12" y="120" fill="pink"/>
<rect width="10" height="10" x="24" y="120" fill="pink"/>
<rect width="10" height="10" x="36" y="120" fill="pink"/>
<rect width="10" height="10" x="48" y="120" fill="pink"/>
<rect width="10" height="10" x="60" y="120" fill="pink"/>
<rect width="10" height="10" x="72" y="120" fill="pink"/>
<rect width="10" height="10" x="84" y="120" fill="pink"/>
<rect width="10" height="10" x="96" y="120" fill="pink"/>
<rect width="10" height="10" x="108" y="120" fill="pink"/>
<rect width="10" height="10" x="120" y="120" fill="pink"/>
<rect width="10" height="10" x="132" y="120" fill="green"/>
<rect width="10" height="10" x="144" y="120" fill="green"/>
<rect width="10" height="10" x="156" y="120" fill="pink"/>
<rect width="10" height="10" x="168" y="120" fill="pink"/>
<rect width="10" height="10" x="180" y="120" fill="pink"/>
<rect width="10" height="10" x="192" y="120" fill="pink"/>
<rect width="10" height="10" x="204" y="120" fill="pink"/>
<rect width="10" height="10" x="216" y="120" fill="pink"/>
<rect width="10" height="10" x="228" y="120" fill="pink"/>
<rect width="10" height="10" x="240" y="120" fill="pink"/>
<rect width="10" height="10" x="252" y="120" fill="pink"/>
<rect width="10" height="10" x="264" y="120" fill="pink"/>
<rect width="10" height="10" x="276" y="120" fill="pink"/>
<rect width="10" height="10" x="288" y="120" fill="pink"/>
<rect width="10" height="10" x="300" y="120" fill="pink"/>
<rect width="10" height="10" x="312" y="120" fill="pink"/>
<rect width="10" height="10" x="324" y="120" fill="pink"/>
<rect width="10" height="10" x="336" y="120" fill="pink"/>
<rect width="10" height="10" x="348" y="120" fill="pink"/>
<rect width="10" height="10" x="360" y="120" fill="pink"/>
<rect width="10" height="10" x="372" y="120" fill="pink"/>
<rect width="10" height="10" x="384" y="120" fill="pink"/>
<rect width="10" height="10" x="396" y="120" fill="pink"/>
<rect width="10" height="10" x="408" y="120" fill="pink"/>
<rect width="10" height="10" x="420" y="120" fill="pink"/>
<rect width="10" height="10" x="432" y="120" fill="pink"/>
<rect width="10" height="10" x="444" y="120" fill="pink"/>
<rect width="10" height="10" x="456" y="120" fill="pink"/>
<rect width="10" height="10" x="468" y="120" fill="pink"/>
<rect width="10" height="10" x="480" y="120" fill="pink"/>
<rect width="10" height="10" x="492" y="120" fill="pink"/>
<rect width="10" height="10" x="504" y="120" fill="pink"/>
<rect width="10" height="10" x="516" y="120" fill="pink"/>
<rect width="10" height="10" x="528" y="120" fill="pink"/>
<rect width="10" height="10" x="540" y="120" fill="pink"/>
<rect width="10" height="10" x="552" y="120" fill="pink"/>
<rect width="10" height="10" x="564" y="120" fill="pink"/>
<rect width="10" height="10" x="576" y="120" fill="pink"/>
<rect width="10" height="10" x="588" y="120" fill="pink"/>
<rect width="10" height="10" x="0" y="132" fill="pink"/>
<rect width="10" height="10" x="12" y="132" fill="pink"/>
<rect width="10" height="10" x="24" y="132" fill="pink"/>
<rect width="10" height="10" x="36" y="132" fill="pink"/>
<rect width="10" height="10" x="48" y="132" fill="pink"/>
<rect width="10" height="10" x="60" y="132" fill="pink"/>
<rect width="10" height="10" x="72" y="132" fill="pink"/>
<rect width="10" height="10" x="84" y="132" fill="pink"/>
<rect width="10" height="10" x="96" y="132" fill="pink"/>
<rect width="10" height="10" x="108" y="132" fill="pink"/>
<rect width="10" height="10" x="120" y="132" fill="pink"/>
<rect width="10" height="10" x="132" y="132" fill="pink"/>
<rect width="10" height="10" x="144" y="132" fill="pink"/>
<rect width="10" height="10" x="156" y="132" fill="pink"/>
<rect width="10" height="10" x="168" y="132" fill="pink"/>
<rect width="10" height="10" x="180" y="132" fill="pink"/>
<rect width="10" height="10" x="192" y="132" fill="pink"/>
<rect width="10" height="10" x="204" y="132" fill="pink"/>
<rect width="10" height="10" x="216" y="132" fill="pink"/>
<rect width="10" height="10" x="228" y="132" fill="pink"/>
<rect width="10" height="10" x="240" y="132" fill="pink"/>
<rect width="10" height="10" x="252" y="132" fill="pink"/>
<rect width="10" height="10" x="264" y="132" fill="pink"/>
<rect width="10" height="10" x="276" y="132" fill="pink"/>
<rect width="10" height="10" x="288" y="132" fill="pink"/>
<rect width="10" height="10" x="300" y="132" fill="pink"/>
<rect width="10" height="10" x="312" y="132" fill="pink"/>
<rect width="10" height="10" x="324" y="132" fill="pink"/>
<rect width="10" height="10" x="336" y="132" fill="pink"/>
<rect width="10" height="10" x="348" y="132" fill="pink"/>
<rect width="10" height="10" x="360" y="132" fill="pink"/>
<rect width="10" height="10" x="372" y="132" fill="pink"/>
<rect width="10" height="10" x="384" y="132" fill="pink"/>
<rect width="10" height="10" x="396" y="132" fill="pink"/>
<rect width="10" height="10" x="408" y="132" fill="pink"/>
<rect width="10" height="10" x="420" y="132" fill="pink"/>
<rect width="10" height="10" x="432" y="132" fill="pink"/>
<rect width="10" height="10" x="444" y="132" fill="pink"/>
<rect width="10" height="10" x="456" y="132" fill="pink"/>
<rect width="10" height="10" x="468" y="132" fill="pink"/>
<rect width="10" height="10" x="480" y="132" fill="pink"/>
<rect width="10" height="10" x="492" y="132" fill="pink"/>
<rect width="10" height="10" x="504" y="132" fill="pink"/>
<rect width="10" height="10" x="516" y="132" fill="pink"/>
<rect width="10" height="10" x="528" y="132" fill="pink"/>
<rect width="10" height="10" x="540" y="132" fill="pink"/>
<rect width="10" height="10" x="552" y="132" fill="pink"/>
<rect width="10" height="10" x="564" y="132" fill="pink"/>
<rect width="10" height="10" x="576" y="132" fill="pink"/>
<rect width="10" height="10" x="588" y="132" fill="pink"/>
<rect width="10" height="10" x="0" y="144" fill="pink"/>
<rect width="10" height="10" x="12" y="144" fill="pink"/>
<rect width="10" height="10" x="24" y="144" fill="pink"/>
<rect width="10" height="10" x="36" y="144" fill="pink"/>
<rect width="10" height="10" x="48" y="144" fill="pink"/>
<rect width="10" height="10" x="60" y="144" fill="pink"/>
<rect width="10" height="10" x="72" y="144" fill="pink"/>
<rect width="10" height="10" x="84" y="144" fill="pink"/>
<rect width="10" height="10" x="96" y="144" fill="pink"/>
<rect width="10" height="10" x="108" y="144" fill="pink"/>
<rect width="10" height="10" x="120" y="144" fill="pink"/>
<rect width="10" height="10" x="132" y="144" fill="pink"/>
<rect width="10" height="10" x="144" y="144" fill="pink"/>
<rect width="10" height="10" x="156" y="144" fill="pink"/>
<rect width="10" height="10" x="168" y="144" fill="pink"/>
<rect width="10" height="10" x="180" y="144" fill="pink"/>
<rect width="10" height="10" x="192" y="144" fill="pink"/>
<rect width="10" height="10" x="204" y="144" fill="pink"/>
<rect width="10" height="10" x="216" y="144" fill="pink"/>
<rect width="10" height="10" x="228" y="144" fill="pink"/>
<rect width="10" height="10" x="240" y="144" fill="pink"/>
<rect width="10" height="10" x="252" y="144" fill="pink"/>
<rect width="10" height="10" x="264" y="144" fill="pink"/>
<rect width="10" height="10" x="276" y="144" fill="pink"/>
<rect width="10" height="10" x="288" y="144" fill="pink"/>
<rect width="10" height="10" x="300" y="144" fill="pink"/>
<rect width="10" height="10" x="312" y="144" fill="pink"/>
<rect width="10" height="10" x="324" y="144" fill="pink"/>
<rect width="10" height="10" x="336" y="144" fill="pink"/>
<rect width="10" height="10" x="348" y="144" fill="pink"/>
<rect width="10" height="10" x="360" y="144" fill="pink"/>
<rect width="10" height="10" x="372" y="144" fill="pink"/>
<rect width="10" height="10" x="384" y="144" fill="pink"/>
<rect width="10" height="10" x="396" y="144" fill="pink"/>
<rect width="10" height="10" x="408" y="144" fill="pink"/>
<rect width="10" height="10" x="420" y="144" fill="pink"/>
<rect width="10" height="10" x="432" y="144" fill="pink"/>
<rect width="10" height="10" x="444" y="144" fill="pink"/>
<rect width="10" height="10" x="456" y="144" fill="pink"/>
<rect width="10" height="10" x="468" y="144" fill="pink"/>
<rect width="10" height="10" x="480" y="144" fill="pink"/>
<rect width="10" height="10" x="492" y="144" fill="pink"/>
<rect width="10" height="10" x="504" y="144" fill="pink"/>
<rect width="10" height="10" x="516" y="144" fill="pink"/>
<rect width="10" height="10" x="528" y="144" fill="pink"/>
<rect width="10" height="10" x="540" y="144" fill="pink"/>
<rect width="10" height="10" x="552" y="144" fill="pink"/>
<rect width="10" height="10" x="564" y="144" fill="pink"/>
<rect width="10" height="10" x="576" y="144" fill="pink"/>
<rect width="10" height="10" x="588" y="144" fill="pink"/>
<rect width="10" height="10" x="0" y="156" fill="pink"/>
<rect width="10" height="10" x="12" y="156" fill="pink"/>
<rect width="10" height="10" x="24" y="156" fill="pink"/>
<rect width="10" height="10" x="36" y="156" fill="pink"/>
<rect width="10" height="10" x="48" y="156" fill="pink"/>
<rect width="10" height="10" x="60" y="156" fill="pink"/>
<rect width="10" height="10" x="72" y="156" fill="pink"/>
<rect width="10" height="10" x="84" y="156" fill="pink"/>
<rect width="10" height="10" x="96" y="156" fill="pink"/>
<rect width="10" height="10" x="108" y="156" fill="pink"/>
<rect width="10" height="10" x="120" y="156" fill="pink"/>
<rect width="10" height="10" x="132" y="156" fill="pink"/>
<rect width="10" height="10" x="144" y="156" fill="pink"/>
<rect width="10" height="10" x="156" y="156" fill="pink"/>
<rect width="10" height="10" x="168" y="156" fill="pink"/>
<rect width="10" height="10" x="180" y="156" fill="pink"/>
<rect width="10" height="10" x="192" y="156" fill="pink"/>
<rect width="10" height="10" x="204" y="156" fill="pink"/>
<rect width="10" height="10" x="216" y="156" fill="pink"/>
<rect width="10" height="10" x="228" y="156" fill="pink"/>
<rect width="10" height="10" x="240" y="156" fill="pink"/>
<rect width="10" height="10" x="252" y="156" fill="pink"/>
<rect width="10" height="10" x="264" y="156" fill="pink"/>
<rect width="10" height="10" x="276" y="156" fill="pink"/>
<rect width="10" height="10" x="288" y="156" fill="pink"/>
<rect width="10" height="10" x="300" y="156" fill="pink"/>
<rect width="10" height="10" x="312" y="156" fill="pink"/>
<rect width="10" height="10" x="324" y="156" fill="pink"/>
<rect width="10" height="10" x="336" y="156" fill="pink"/>
<rect width="10" height="10" x="348" y="156" fill="pink"/>
<rect width="10" height="10" x="360" y="156" fill="pink"/>
<rect width="10" height="10" x="372" y="156" fill="pink"/>
<rect width="10" height="10" x="384" y="156" fill="pink"/>
<rect width="10" height="10" x="396" y="156" fill="pink"/>
<rect width="10" height="10" x="408" y="156" fill="pink"/>
<rect width="10" height="10" x="420" y="156" fill="pink"/>
<rect width="10" height="10" x="432" y="156" fill="pink"/>
<rect width="10" height="10" x="444" y="156" fill="pink"/>
<rect width="10" height="10" x="456" y="156" fill="pink"/>
<rect width="10" height="10" x="468" y="156" fill="pink"/>
<rect width="10" height="10" x="480" y="156" fill="pink"/>
<rect width="10" height="10" x="492" y="156" fill="pink"/>
<rect width="10" height="10" x="504" y="156" fill="pink"/>
<rect width="10" height="10" x="516" y="156" fill="pink"/>
<rect width="10" height="10" x="528" y="156" fill="pink"/>
<rect width="10" height="10" x="540" y="156" fill="pink"/>
<rect width="10" height="10" x="552" y="156" fill="pink"/>
<rect width="10" height="10" x="564" y="156" fill="pink"/>
<rect width="10" height="10" x="576" y="156" fill="pink"/>
<text x="0" y="181" style="font-family: sans-serif; font-size: 15px">Functions decompiled (count): 2.86%</text>
<text x="0" y="198" style="font-family: sans-serif; font-size: 15px">Functions decompiled (bytesize): 1.83%</text>
</svg>
